<svg width="4579" height="3501" viewBox="0 0 4579 3501" fill="none" xmlns="http://www.w3.org/2000/svg">
<g filter="url(#filter0_i_575_768)">
<path fill-rule="evenodd" clip-rule="evenodd" d="M0.239277 2444.47C0.239277 2146.54 0.239277 1848.62 0.239277 1550.69C0.239277 1530.66 0.261078 1530.65 20.1427 1530.64C55.3237 1530.63 90.5046 1530.28 125.675 1530.83C136.946 1531.01 140.963 1527.43 140.779 1515.92C140.203 1479.89 140.551 1443.84 140.583 1407.79C140.605 1390.04 140.866 1389.73 159.021 1389.73C321.45 1389.71 483.88 1389.72 646.31 1389.72C893.424 1389.72 1140.55 1389.72 1387.67 1389.72C1407.5 1389.72 1407.51 1389.75 1407.52 1409.64C1407.53 1445.26 1407.85 1480.87 1407.34 1516.48C1407.19 1527.16 1410.61 1530.95 1421.46 1530.8C1457.94 1530.3 1494.42 1530.59 1530.91 1530.64C1547.43 1530.66 1548.15 1531.3 1548.16 1547.15C1548.18 1676.57 1548.18 1806 1548.15 1935.42C1548.15 1952.37 1547.46 1953 1530.52 1953C1401.53 1953.03 1272.54 1953.03 1143.55 1953C1126.56 1953 1125.94 1952.41 1125.91 1935.41C1125.85 1899.8 1125.53 1864.18 1126.09 1828.58C1126.27 1816.56 1122.84 1811.59 1109.94 1811.6C885.834 1811.89 661.74 1811.91 437.635 1811.56C423.758 1811.54 422.357 1817.96 422.379 1829.11C422.596 1973.74 422.52 2118.37 422.52 2262.99C422.52 2528.35 422.52 2793.72 422.52 3059.08C422.52 3078.36 422.531 3078.39 441.565 3078.39C663.054 3078.39 884.553 3078.39 1106.05 3078.38C1125.87 3078.38 1125.89 3078.35 1125.89 3058.31C1125.89 2930.61 1125.9 2802.93 1125.89 2675.25C1125.89 2656.34 1125.85 2656.29 1107.26 2656.29C1025.17 2656.27 943.09 2656.04 861.001 2656.53C848.568 2656.61 844.659 2653.12 844.703 2640.48C845.104 2510.61 844.931 2380.76 844.974 2250.9C844.974 2233.9 845.126 2233.82 862.576 2233.82C1038.47 2233.8 1214.36 2233.8 1390.26 2233.82C1407.45 2233.82 1407.49 2233.9 1407.51 2251.15C1407.54 2286.77 1408.01 2322.39 1407.26 2357.99C1406.99 2370.87 1410.5 2375.62 1424.01 2375.31C1459.6 2374.48 1495.23 2374.99 1530.84 2375.05C1547.15 2375.07 1548.14 2375.97 1548.14 2391.71C1548.16 2708.76 1548.16 3025.8 1548.14 3342.85C1548.14 3359.61 1547.48 3360.2 1530.3 3360.22C1494.26 3360.26 1458.2 3360.59 1422.16 3360.02C1410.67 3359.82 1407.13 3363.76 1407.31 3375.08C1407.88 3412.42 1407.15 3449.78 1407.75 3487.12C1407.92 3498.12 1404.22 3500.99 1393.57 3500.98C980.975 3500.75 568.391 3500.74 155.796 3501C143.667 3501.01 140.127 3497.11 140.334 3485.26C140.985 3448.79 140.203 3412.29 140.79 3375.83C140.985 3364.02 137.315 3359.77 125.186 3359.99C89.1473 3360.64 53.0869 3359.69 17.059 3360.49C3.84436 3360.8 -0.0430743 3356.63 0.000359026 3343.5C0.423834 3222.33 0.239277 3101.15 0.239277 2979.97C0.239277 2801.47 0.239277 2622.97 0.239277 2444.47Z" fill="#216EFF"/>
<path fill-rule="evenodd" clip-rule="evenodd" d="M2845.41 428.299C2851.15 424.987 2857.68 422.555 2862.53 418.233C2909.9 376.168 2958.01 334.852 3003.96 291.267C3069.17 229.407 3132.61 165.668 3197.15 103.092C3212.09 88.6175 3227.64 74.4907 3244.34 62.1665C3290.91 27.8216 3339.87 26.6815 3388.83 57.3454C3444.59 92.255 3478.99 144.429 3498.67 204.889C3515.66 257.106 3526.04 311.561 3537.9 365.342C3563.94 483.405 3580.53 602.846 3588.04 723.548C3591.28 775.526 3594.02 827.581 3598.94 879.408C3602.05 912.092 3608.66 944.46 3614.05 976.905C3614.56 979.989 3617.02 983.203 3619.44 985.429C3642.77 1007.06 3666.49 1028.08 3699.39 1034.17C3702.31 1034.71 3704.75 1037.78 3707.41 1039.68C3705.4 1042.27 3703.9 1045.58 3701.31 1047.34C3659.09 1076.2 3618.16 1107.31 3569.1 1126.62C3577.65 1126.62 3586.23 1127.11 3594.73 1126.49C3604.19 1125.79 3613.63 1124.4 3622.98 1122.73C3631.77 1121.16 3640.41 1118.83 3649.12 1116.84C3650.13 1117.87 3651.13 1118.89 3652.13 1119.92C3639.16 1134.31 3626.68 1149.18 3613.08 1162.93C3599.45 1176.71 3584.7 1189.37 3569.31 1203.56C3615.84 1230.26 3665.73 1226.98 3716.46 1223.15C3675.9 1272.91 3633.23 1319.92 3575.31 1352.77C3594.11 1372.25 3615.15 1386.01 3638.17 1395.61C3660.98 1405.13 3685.19 1411.26 3708.37 1418.73C3698.83 1434.89 3654.8 1455.51 3582.34 1475.98C3621.67 1492.63 3660.11 1492.26 3699.27 1482.79C3699.89 1483.75 3700.51 1484.72 3701.14 1485.68C3698.9 1489.11 3697.33 1493.35 3694.32 1495.86C3668.85 1517.12 3641.9 1536.13 3608.85 1543.62C3595.13 1546.73 3581 1549.36 3567.01 1549.55C3233.06 1554.32 2899.12 1559.02 2565.16 1563.11C2370.62 1565.49 2176.06 1566.9 1981.5 1568.55C1905.05 1569.21 1828.6 1570.44 1752.2 1569C1729.42 1568.56 1706.76 1560.07 1684.11 1555.04C1671.4 1552.21 1658.62 1549.45 1646.23 1545.56C1641.61 1544.1 1637.97 1539.48 1633.89 1536.29C1637.51 1532.55 1640.55 1526.58 1644.88 1525.42C1682.65 1515.34 1696.75 1482.19 1718.45 1453.55C1665.09 1451.09 1624.08 1425.88 1584.98 1396.36C1580.49 1392.97 1575.87 1389.38 1572.57 1384.94C1570.31 1381.9 1568.77 1376.82 1569.72 1373.43C1570.36 1371.13 1575.77 1368.95 1579.16 1368.77C1623.64 1366.45 1667.51 1345.06 1696.52 1310.55C1693.75 1309.91 1691.53 1308.87 1689.36 1308.97C1651.83 1310.87 1616.37 1300.2 1580.78 1290.73C1577.45 1289.84 1575.38 1284.2 1572.73 1280.78C1576.12 1278.18 1579.15 1274.13 1582.93 1273.23C1622.98 1263.76 1649.5 1238.68 1668.53 1201.37C1653.93 1200.4 1641.2 1200.11 1628.61 1198.62C1599.84 1195.21 1572.8 1185.94 1547.79 1171.43C1543.03 1168.66 1540.41 1162.17 1536.8 1157.4C1541.28 1154.76 1545.44 1150.99 1550.27 1149.68C1593.88 1137.86 1626.43 1110.66 1652.31 1075.13C1664.94 1057.79 1674.92 1038.53 1686.25 1019.9C1659.2 1013.61 1634.28 1009.5 1610.55 1001.75C1591.82 995.625 1574.31 985.494 1556.84 976.058C1552.87 973.908 1549.28 967.23 1549.38 962.713C1549.44 959.597 1555.9 956.187 1559.98 953.69C1566.92 949.412 1575.36 946.958 1581.24 941.615C1626.86 900.245 1665.61 853.544 1682.69 793.106C1689.58 768.708 1690.75 742.691 1694.67 717.445C1712.78 600.816 1744.3 487.477 1781.07 375.647C1804.79 303.525 1830.75 232.067 1858.41 161.357C1876.14 116.013 1901.29 74.0021 1932.87 36.53C1972.21 -10.1391 2000.28 -11.5724 2045.46 29.2549C2138.05 112.918 2223.56 203.51 2308.81 294.535C2350.22 338.761 2397.17 377.829 2442.07 418.732C2445.24 421.621 2452.49 421.534 2457.46 420.676C2576.86 400.338 2695.98 400.089 2814.8 425.02C2826.23 427.419 2837.45 430.785 2848.76 433.706C2847.67 431.925 2846.54 430.112 2845.41 428.299ZM2486.66 1099.8C2486.33 1096.38 2485.83 1093.03 2485.72 1089.68C2479.87 918.987 2331.32 821.218 2189.56 834.064C2012.45 850.112 1898.31 1017.82 1917.51 1166.29C1929.93 1262.37 1977.33 1335 2065.49 1377.21C2201.97 1442.55 2375.21 1380.37 2447.93 1242.04C2468.98 1201.98 2482.48 1159.9 2486.01 1114.48C2490.7 1113.2 2494.77 1111.47 2498.96 1111.04C2548.94 1105.91 2598.86 1098.66 2648.96 1096.93C2676.09 1096 2703.55 1104.62 2730.88 1108.86C2739.57 1110.2 2741.13 1115.47 2741.48 1123.59C2742.38 1144.77 2742.83 1166.19 2746.47 1186.99C2777.12 1362.51 2958.97 1462.23 3123.89 1394.46C3252.3 1341.69 3327.48 1210.52 3309.81 1070.11C3288.72 902.677 3130.42 793.019 2967.87 835.464C2845.87 867.323 2775.37 949.955 2746.82 1070.78C2744.79 1079.36 2743.32 1088.07 2741.76 1095.83C2655.65 1071.88 2572 1077.71 2486.66 1099.8ZM3347.24 65.0114C3346.32 66.1624 3345.41 67.3242 3344.5 68.4752C3350.09 80.9297 3356.26 93.1779 3361.17 105.904C3382.56 161.336 3392.48 219.612 3399.62 278.041C3416.51 416.289 3447.66 551.313 3486.96 684.653C3506.37 750.52 3529.33 814.996 3561.88 875.716C3564.07 879.788 3566.81 883.578 3569.31 887.487C3567.2 845.193 3562.81 804.258 3559.77 763.224C3551.36 649.787 3540.52 536.654 3517.45 425.095C3504.28 361.379 3492.09 297.347 3475.72 234.434C3462.14 182.173 3436.62 134.896 3395.53 98.3031C3381.05 85.4034 3363.43 76.0001 3347.24 65.0114ZM1946.79 61.9168C1944.02 65.4784 1940.71 68.7359 1938.54 72.634C1917.46 110.464 1893.23 146.97 1876.23 186.581C1819.67 318.456 1778.35 455.64 1742.76 594.431C1725.65 661.188 1713.09 729.118 1698.44 796.516C1697.89 799.057 1696.89 801.5 1696.5 804.051C1696.17 806.18 1696.43 808.384 1696.43 812.195C1748.58 756.97 1789.79 696.782 1815.22 627.723C1838.12 565.537 1856.89 501.755 1875.39 438.071C1890.34 386.57 1904.79 334.656 1914.78 282.037C1928.56 209.46 1927.39 134.494 1946.79 61.9168ZM2544.76 1226.25C2544.76 1254.53 2543.41 1281.84 2545.04 1308.96C2548.31 1362.85 2555.73 1416.22 2577.48 1466.28C2583.26 1479.58 2591.51 1492.36 2600.95 1503.36C2613.15 1517.55 2627.79 1517.65 2640.26 1503.71C2649.63 1493.21 2657.73 1480.85 2663.57 1468.03C2687.9 1414.59 2694.79 1357.24 2698.35 1299.46C2699.75 1276.7 2698.58 1253.78 2698.58 1230.19C2669.74 1227.68 2646.38 1212.57 2627.25 1189.14C2604.46 1214.08 2576.83 1226.59 2544.76 1226.25Z" fill="white"/>
<path fill-rule="evenodd" clip-rule="evenodd" d="M3920.12 2537.93C3920.12 2547.68 3920.12 2555.84 3920.12 2563.99C3920.12 2604.83 3919.64 2645.66 3920.4 2686.46C3920.64 2699.28 3916.44 2702.47 3904.13 2702.43C3770.36 2702.03 3636.58 2702.17 3502.81 2702.16C3496.84 2702.16 3490.86 2702.16 3484.14 2702.16C3483.77 2707.72 3483.31 2711.51 3483.3 2715.31C3483.26 2760.91 3483.6 2806.51 3483.04 2852.13C3482.9 2863.14 3486.42 2865.94 3497.06 2865.9C3577.41 2865.49 3657.76 2865.67 3738.1 2865.67C3756.28 2865.67 3756.33 2865.7 3756.34 2883.24C3756.37 2927.09 3755.93 2970.97 3756.61 3014.83C3756.81 3027.23 3753.38 3031.12 3740.68 3031.03C3660.77 3030.49 3580.85 3030.76 3500.93 3030.75C3495.78 3030.75 3490.64 3030.75 3484.12 3030.75C3483.81 3036.42 3483.32 3040.98 3483.31 3045.54C3483.26 3090.27 3483.7 3135.01 3483.01 3179.73C3482.81 3192.1 3486.14 3195.91 3498.85 3195.87C3633.49 3195.43 3768.14 3195.6 3902.77 3195.61C3920.11 3195.61 3920.12 3195.63 3920.12 3213.44C3920.13 3256 3920.12 3298.57 3920.12 3341.13C3920.12 3346.23 3920.12 3351.32 3920.12 3358.15C3913.9 3358.15 3909.27 3358.15 3904.64 3358.15C3732.64 3358.15 3560.64 3358.04 3388.66 3358.38C3377.03 3358.4 3371.88 3355.72 3373.12 3343.3C3374.06 3333.85 3373.03 3324.21 3373.38 3314.66C3373.64 3307.26 3370.34 3304.63 3363.25 3304.79C3351.97 3305.04 3340.64 3304.31 3329.38 3304.99C3319.95 3305.55 3317.15 3301.6 3317.69 3292.8C3318.23 3283.88 3317.81 3274.9 3315.15 3265.59C3311.08 3277.74 3307.49 3290.09 3302.86 3302.01C3286.59 3343.89 3259.69 3375.01 3214.66 3387.19C3195.2 3392.45 3176.9 3389.87 3159.66 3379.21C3126.38 3358.64 3101.91 3331.11 3089.6 3293.3C3080.75 3266.06 3071.48 3238.91 3061.38 3212.1C3051.39 3185.57 3038.75 3160.2 3017.77 3140.37C3013.17 3136.03 3005.87 3132.29 2999.73 3132.14C2905.54 3129.97 2811.33 3127.52 2717.12 3127.13C2671.61 3126.93 2625.75 3128.32 2580.66 3133.89C2553.76 3137.2 2530 3153.52 2511.64 3174.7C2507.36 3179.62 2505.46 3187.07 2503.81 3193.7C2498.5 3215.19 2493.13 3236.7 2489.05 3258.44C2482.02 3295.77 2463.94 3327.3 2441.31 3357.11C2398.12 3413.92 2307.04 3419.81 2265.17 3350.47C2262.96 3346.81 2260.46 3343.34 2258.1 3339.78C2256.88 3339.86 2255.66 3339.95 2254.44 3340.03C2254.44 3351.23 2254.2 3362.45 2254.53 3373.66C2254.76 3381.48 2251.62 3384.35 2243.77 3384.31C2195.12 3384.08 2146.48 3384.18 2097.84 3384.1C2095.78 3384.1 2093.7 3383.47 2090.33 3382.92C2090.33 3274.59 2090.33 3166.65 2090.33 3057.76C1998.37 3057.76 1907.84 3057.76 1815.84 3057.76C1815.84 3166.05 1815.84 3273.94 1815.84 3382.96C1810.8 3383.46 1807.1 3384.14 1803.4 3384.14C1757.36 3384.22 1711.32 3383.93 1665.28 3384.39C1655.1 3384.5 1651.76 3381.55 1651.77 3371.19C1652 3124.92 1652 2878.67 1651.8 2632.41C1651.8 2622.49 1654.53 2617.91 1665.12 2618.81C1673.74 2619.55 1682.52 2618.39 1691.15 2619.09C1702.62 2620.01 1707.97 2616.62 1706.84 2603.94C1705.74 2591.48 1706.61 2578.85 1706.61 2565.13C1870.96 2565.13 2034.35 2565.13 2199.18 2565.13C2199.18 2579.46 2199.63 2593.29 2199.02 2607.04C2198.61 2616.32 2202.32 2619.47 2211.16 2619.04C2220.69 2618.59 2230.31 2619.56 2239.8 2618.79C2251.25 2617.85 2254.79 2622.16 2254.71 2633.6C2254.27 2704.4 2254.48 2775.2 2254.48 2845.99C2254.48 2851.95 2254.48 2857.92 2254.48 2863.87C2255.34 2864.09 2256.21 2864.32 2257.08 2864.55C2258.32 2862.28 2259.91 2860.13 2260.73 2857.71C2282.38 2794.08 2313.87 2735.15 2346.78 2676.89C2350.18 2670.86 2352.72 2664.37 2355.97 2658.23C2358.57 2653.29 2360.7 2645.54 2364.66 2644.31C2382.33 2638.84 2389.37 2621.12 2403.3 2612.5C2429.18 2596.47 2459.64 2590.71 2488.3 2598.11C2516.39 2605.35 2543.16 2619.69 2564.08 2641.68C2571.35 2649.33 2579.67 2650.89 2589.92 2650.39C2637.2 2648.09 2684.48 2646.13 2731.79 2644.85C2793.44 2643.17 2855.09 2642.25 2916.74 2640.96C2924.55 2640.78 2932.37 2639.9 2940.17 2640.13C2953.21 2640.51 2963.33 2635.98 2971.74 2625.69C2979.65 2616.01 2989.56 2609.82 3003.42 2610.9C3007.61 2611.22 3012.14 2605.5 3016.7 2602.86C3023.8 2598.75 3030.89 2591.94 3038.3 2591.46C3068.12 2589.55 3098.07 2589.65 3127.97 2588.98C3139.17 2588.73 3146.5 2594.1 3152.01 2603.71C3161.95 2621.03 3172.6 2637.93 3182.98 2655.01C3183.65 2656.12 3184.12 2657.71 3185.12 2658.22C3207.55 2669.49 3216.35 2692.47 3228.41 2711.66C3245.83 2739.38 3262.17 2768.5 3273.69 2799.02C3289.28 2840.35 3299.85 2883.54 3312.57 2925.94C3313.4 2928.7 3314.14 2931.47 3317.83 2934C3317.83 2927.31 3317.83 2920.62 3317.83 2913.92C3317.84 2812.3 3318.12 2710.65 3317.5 2609.03C3317.42 2595.37 3321.57 2591.37 3334.42 2592.7C3343.44 2593.65 3352.65 2592.64 3361.76 2592.92C3369.98 2593.18 3373.73 2589.87 3373.43 2581.4C3373.08 2570.98 3373.93 2560.51 3373.21 2550.14C3372.5 2540.09 3376.62 2537.15 3386.07 2537.74C3396.47 2538.4 3406.91 2537.89 3417.35 2537.89C3578.9 2537.89 3740.46 2537.89 3902.02 2537.9C3907.51 2537.93 3913.05 2537.93 3920.12 2537.93ZM2089.25 2729.36C1997.47 2729.36 1907.03 2729.36 1816.27 2729.36C1816.27 2783.69 1816.27 2836.87 1816.27 2890.87C1907.56 2890.87 1997.99 2890.87 2089.25 2890.87C2089.25 2836.83 2089.25 2783.64 2089.25 2729.36ZM2943.62 2658.64C2943.04 2657.34 2942.48 2656.05 2941.9 2654.76C2825.82 2657.84 2709.72 2660.92 2590.18 2664.1C2602.61 2676.31 2611.78 2686.76 2622.38 2695.46C2654.16 2721.58 2689.14 2738.61 2732.15 2733.72C2749.32 2731.76 2766.8 2732.69 2784.14 2732.22C2809.29 2731.54 2834.53 2731.72 2859.54 2729.62C2870.28 2728.72 2883.43 2725.89 2890.58 2718.92C2909.69 2700.27 2926.13 2678.92 2943.62 2658.64ZM2455.68 2709.12C2398.79 2709.64 2346.69 2754.87 2346.92 2817.48C2347.14 2871.88 2395.89 2916.41 2451.18 2915.5C2519.25 2914.38 2559.67 2854.8 2556.63 2802.19C2553.77 2752.96 2506.41 2707.92 2455.68 2709.12ZM2948.16 3035.94C2987.66 3035.67 3023.12 3003.21 3022.29 2968.11C3021.6 2939.34 2987.33 2900.37 2963 2900.68C2918.87 2901.24 2884.17 2933.87 2884.53 2974.47C2884.85 3009.85 2912.12 3036.19 2948.16 3035.94ZM2660.93 2968.04C2658.41 2932.08 2627.36 2908.65 2581.39 2907.44C2559.54 2906.86 2522.19 2950.38 2522.75 2973.85C2523.64 3010.5 2551.19 3038.28 2587.69 3037.62C2635.31 3036.76 2657.62 3003.29 2660.93 2968.04ZM3028.78 2855.44C3041.59 2827.1 3054.67 2816.99 3075.28 2818.73C3099.24 2820.75 3113.06 2835.11 3119.99 2861.43C3130.97 2848.81 3139.26 2839.24 3148.55 2828.57C3103.88 2813.27 3098.63 2794.29 3123.77 2748.47C3119.07 2744.07 3114.2 2739.48 3109.44 2735C3085.85 2756.46 3068.08 2760.1 3049.21 2748.13C3033.42 2738.12 3033.06 2738.19 3021.8 2753.91C3042.09 2775.63 3044.1 2803.17 3009.11 2828.5C3010.17 2830.68 3010.94 2833.23 3012.45 2835.19C3017.42 2841.66 3022.68 2847.91 3028.78 2855.44ZM2623.42 2901.18C2673.75 2936.94 2683.55 2967.56 2660.29 3010.11C2650.45 3028.1 2635.41 3040.5 2616.42 3046.85C2587.57 3056.49 2559.58 3052.65 2532.76 3037.11C2535 3042.13 2537.48 3046.57 2540.87 3050.16C2577.31 3088.67 2643.41 3080.34 2676.25 3033.22C2704.04 2993.36 2699.03 2943.38 2663.94 2914.88C2653.18 2906.14 2641.16 2899.41 2623.42 2901.18ZM2916.99 2897.39C2880 2902.58 2854.48 2935.5 2854.96 2975.33C2855.5 3019.74 2890.41 3058.45 2934.87 3063.85C2964.04 3067.39 3005.99 3046.3 3006.76 3028.32C2955.06 3056.44 2910.36 3052.3 2884.48 3017.03C2858.13 2981.09 2868.38 2942.28 2916.99 2897.39ZM3148.88 2815.39C3168.72 2815.48 3183.28 2801.55 3183.19 2782.58C3183.11 2767.5 3169.3 2753.38 3154.37 2753.11C3135.3 2752.77 3117.91 2768.87 3118.16 2786.6C3118.38 2802.66 3131.89 2815.33 3148.88 2815.39ZM3072.2 2742.97C3090.01 2742.89 3103.54 2730.38 3103.91 2713.67C3104.29 2697.2 3088.78 2680.56 3073.33 2680.83C3055.76 2681.12 3041.49 2695.94 3041.62 2713.74C3041.73 2731.9 3053.41 2743.07 3072.2 2742.97ZM3074.28 2890.63C3091.17 2890.71 3107.31 2876.82 3107.45 2862.1C3107.6 2846.53 3092.26 2830.68 3076.96 2830.62C3058.23 2830.52 3042.89 2844.04 3042.66 2860.84C3042.43 2876.79 3057.03 2890.57 3074.28 2890.63ZM3025.77 2788.21C3025.96 2770.27 3016.43 2759.91 2999.52 2759.62C2980.61 2759.29 2966.56 2772.93 2966.3 2791.85C2966.08 2807.87 2978.73 2821.04 2994.53 2821.29C3011.91 2821.55 3025.57 2807.08 3025.77 2788.21ZM2817.92 2876.29C2786.4 2876.29 2754.86 2875.85 2723.37 2876.6C2715.62 2876.8 2713.11 2888.19 2719.31 2893.91C2722.63 2896.97 2727.54 2900.18 2731.71 2900.15C2755.52 2899.99 2779.43 2899.79 2803.13 2897.77C2817.21 2896.57 2819.64 2891.28 2817.92 2876.29ZM2771.26 2995.25C2783.8 2995.03 2793.34 2985.1 2793.05 2972.54C2792.81 2961.98 2784.51 2954.21 2773.57 2954.28C2760.6 2954.38 2749.61 2964.03 2749.83 2975.14C2750.07 2986.13 2759.97 2995.44 2771.26 2995.25ZM2833.47 2815.82C2849.89 2815.82 2865.66 2816.35 2881.34 2815.44C2885.07 2815.21 2891.9 2809.29 2891.43 2807.49C2890.27 2802.94 2886.36 2796.63 2882.49 2795.73C2872.07 2793.33 2861.12 2792.75 2850.36 2792.62C2832.05 2792.4 2830.83 2794.25 2833.47 2815.82ZM2701.8 2791.2C2684.46 2793.09 2668.77 2794.24 2653.35 2796.91C2650.13 2797.48 2645.75 2803.62 2645.82 2807.14C2645.86 2810.01 2651.48 2814.73 2655.08 2815.23C2669.4 2817.23 2683.92 2817.89 2699.59 2819.14C2700.35 2809.52 2700.95 2802.02 2701.8 2791.2Z" fill="#216EFF"/>
<path fill-rule="evenodd" clip-rule="evenodd" d="M3977.42 1797.83C3978.77 1766.85 3981.92 1735.84 3981.14 1704.92C3978.69 1608.93 3968.6 1513.65 3950.45 1419.25C3941.68 1373.65 3923.66 1332.42 3896.36 1295.05C3894.1 1291.96 3892.18 1288.62 3887.73 1281.7C3895.86 1282.55 3901.24 1281.92 3905.61 1283.73C4021.1 1331.81 4202.25 1495.48 4255.29 1582.88C4316.96 1684.52 4373.21 1788.13 4402.83 1904.55C4444.57 2068.61 4423.09 2225.03 4347.83 2374.82C4334.99 2400.38 4315.22 2422.57 4297.58 2445.53C4294.09 2450.09 4285.79 2453.11 4279.67 2453.18C4105.52 2455.19 3931.37 2456.79 3757.23 2458.24C3742.49 2458.37 3727.75 2456.66 3712.99 2456.43C3701.8 2456.25 3701.48 2450.63 3705.8 2443.08C3730.99 2398.99 3741.39 2350.19 3750.28 2301.12C3770.12 2191.43 3763.6 2084.33 3716.56 1981.58C3714.05 1976.09 3711.42 1970.39 3710.54 1964.54C3709.99 1960.94 3711.67 1955.66 3714.29 1953.4C3716.29 1951.68 3722.39 1952.15 3724.9 1954.01C3776.32 1992.34 3837.81 2019.1 3870.26 2079.44C3870.58 2080.05 3871.66 2080.23 3874.2 2081.59C3872.46 2061.45 3872.29 2042.12 3868.87 2023.4C3855.78 1951.8 3843.53 1879.96 3827.26 1809.07C3814.01 1751.31 3784.4 1700.46 3748.42 1653.45C3743.14 1646.54 3733.88 1639.18 3740.82 1629.54C3747.87 1619.76 3757.9 1626.65 3765.83 1629.56C3848.22 1659.82 3914.46 1710.84 3963 1784.31C3965.63 1788.29 3968.15 1792.36 3970.79 1796.33C3971.23 1797 3972.04 1797.45 3972.69 1797.99C3974.24 1797.93 3975.84 1797.87 3977.42 1797.83Z" fill="white"/>
<path fill-rule="evenodd" clip-rule="evenodd" d="M3544.01 1624.04C3544.01 1639.43 3544.37 1653.73 3543.87 1668C3543.58 1676.43 3546.49 1679.6 3555.06 1679.3C3569.67 1678.77 3584.3 1679.15 3600.5 1679.15C3600.5 1685.56 3600.5 1690.22 3600.5 1694.87C3600.5 1925.84 3600.39 2156.81 3600.75 2387.77C3600.77 2400.09 3597.82 2405.09 3585.01 2403.83C3574.69 2402.82 3564.19 2403.89 3553.77 2403.59C3546.43 2403.37 3543.77 2406.54 3543.92 2413.7C3544.22 2427.99 3544.02 2442.3 3544.02 2457.82C3377.25 2457.82 3211.27 2457.82 3043.57 2457.82C3043.34 2453.24 3043.06 2448.26 3042.82 2443.27C3042.2 2430.83 3046.22 2413.91 3039.7 2407.21C3033.29 2400.63 3016.22 2404.39 3003.82 2403.66C3001.66 2403.53 2999.47 2403.46 2997.3 2403.65C2989.83 2404.26 2985.51 2401.69 2986.62 2393.4C2986.74 2392.54 2986.63 2391.66 2986.63 2390.79C2986.63 2157.65 2986.63 1924.52 2986.66 1691.37C2986.66 1687.97 2987.05 1684.58 2987.39 1679.16C3002.06 1679.16 3016.21 1678.68 3030.31 1679.33C3040.06 1679.78 3043.41 1676.18 3042.96 1666.56C3042.33 1652.75 3042.8 1638.88 3042.8 1624.05C3210 1624.04 3376 1624.04 3544.01 1624.04ZM3432.46 2041.89C3432.46 1963.28 3432.18 1884.66 3432.75 1806.05C3432.85 1792.63 3428.6 1789.25 3415.62 1789.34C3333.53 1789.88 3251.44 1789.86 3169.35 1789.36C3156.68 1789.28 3153.14 1793.32 3153.18 1805.73C3153.52 1962.95 3153.55 2120.19 3153.14 2277.41C3153.11 2290.38 3157.51 2293.32 3169.66 2293.24C3251.75 2292.78 3333.84 2292.71 3415.93 2293.31C3429.22 2293.4 3432.84 2289.53 3432.75 2276.42C3432.19 2198.26 3432.47 2120.08 3432.46 2041.89Z" fill="#216EFF"/>
<path fill-rule="evenodd" clip-rule="evenodd" d="M2207.09 1623.76C2207.09 1639.97 2207.32 1654.69 2207 1669.41C2206.82 1676.71 2209.62 1679.5 2216.92 1679.24C2227.77 1678.84 2238.66 1679.55 2249.49 1679.01C2258.25 1678.57 2262.79 1681.34 2261.79 1690.68C2261.56 1692.83 2261.77 1695.02 2261.77 1697.2C2261.77 1926.48 2261.77 2155.77 2261.77 2385.05C2261.77 2403.59 2261.73 2403.59 2243.3 2403.61C2207.08 2403.68 2207.08 2403.68 2207.07 2439.34C2207.07 2445.31 2207.07 2451.28 2207.07 2458.34C2201.06 2458.6 2196.43 2459 2191.8 2459C2034.15 2459.03 1876.52 2458.92 1718.89 2459.25C1707.34 2459.28 1702.08 2456.7 1703.32 2444.21C1704.31 2434.32 1703.29 2424.24 1703.55 2414.26C1703.76 2406.52 1700.55 2403.29 1692.71 2403.54C1681.43 2403.89 1670.13 2403.37 1658.85 2403.65C1651.55 2403.84 1648.41 2400.79 1649.09 2393.57C1649.28 2391.42 1649.1 2389.23 1649.1 2387.05C1649.1 2156.9 1649.1 1926.73 1649.1 1696.59C1649.1 1679.15 1649.12 1679.15 1666.89 1679.14C1675.58 1679.14 1684.29 1678.75 1692.94 1679.24C1701.06 1679.71 1703.73 1676.08 1703.55 1668.49C1703.28 1657.63 1704.12 1646.73 1703.34 1635.94C1702.57 1625.31 1706.94 1622.79 1716.93 1622.83C1792.48 1623.18 1868.04 1623.03 1943.61 1623.03C2027.42 1623.03 2111.24 1623.02 2195.04 1623.05C2198.44 1623.05 2201.83 1623.44 2207.09 1623.76ZM1815.37 2041.5C1815.37 2120.5 1815.59 2199.52 1815.12 2278.52C1815.05 2289.8 1817.83 2293.33 1829.54 2293.26C1912.89 2292.76 1996.25 2292.72 2079.6 2293.27C2092.05 2293.35 2094.61 2289.14 2094.58 2277.62C2094.26 2120.03 2094.26 1962.46 2094.58 1804.86C2094.61 1793.15 2091.64 1789.25 2079.37 1789.32C1996.45 1789.84 1913.53 1789.81 1830.61 1789.35C1818.9 1789.29 1815.01 1792.21 1815.1 1804.46C1815.63 1883.46 1815.37 1962.49 1815.37 2041.5Z" fill="#216EFF"/>
<path fill-rule="evenodd" clip-rule="evenodd" d="M3976.13 2592.89C3991.04 2592.89 4004.4 2592.51 4017.73 2593.03C4027.36 2593.4 4031.15 2589.59 4030.61 2580.06C4030.13 2571.4 4031.36 2562.6 4030.34 2554.04C4028.68 2540.25 4034.57 2537.24 4047.34 2537.65C4075.54 2538.55 4103.78 2537.92 4132.01 2537.92C4257.07 2537.92 4382.12 2538.13 4507.19 2537.65C4520.18 2537.6 4524.98 2540.64 4524.17 2554.2C4523.45 2566.46 4521.29 2582.92 4527.88 2590.02C4533.71 2596.34 4550.72 2593.17 4562.73 2592.68C4574.09 2592.22 4578.69 2595 4578.46 2607.65C4577.68 2652.79 4577.89 2697.96 4578.34 2743.12C4578.44 2753.08 4576.04 2756.72 4565.37 2756.58C4519.35 2756 4473.3 2756 4427.28 2756.58C4415.97 2756.72 4412.85 2752.48 4413.63 2742.14C4414.29 2733.49 4413.21 2724.72 4413.9 2716.11C4414.78 2705.34 4410.73 2701.91 4399.89 2701.97C4334.32 2702.39 4268.75 2702.19 4203.19 2702.19C4186.24 2702.19 4169.3 2702.51 4152.38 2702.06C4143.97 2701.83 4140.95 2704.77 4141 2713.3C4141.28 2760.19 4141.5 2807.1 4140.88 2853.99C4140.72 2866.14 4147.18 2865.76 4155.59 2865.75C4271.11 2865.64 4386.61 2865.67 4502.11 2865.67C4506.01 2865.67 4509.95 2865.92 4513.83 2865.65C4521.32 2865.12 4523.85 2869 4523.79 2875.85C4523.67 2885.82 4524.4 2895.87 4523.64 2905.79C4522.77 2917.34 4526.23 2922.55 4538.8 2921.48C4551.22 2920.44 4563.78 2921.26 4577.32 2921.26C4577.65 2926.86 4578.1 2931.03 4578.1 2935.21C4578.14 3053.31 4577.98 3171.43 4578.35 3289.54C4578.39 3301.11 4575.79 3306.5 4563.27 3305.03C4555.14 3304.07 4546.73 3305.51 4538.57 3304.7C4527.39 3303.58 4522.54 3307.14 4523.62 3319C4524.52 3328.9 4524.55 3339.05 4523.31 3348.89C4522.89 3352.29 4517.88 3355.72 4514.23 3357.87C4511.96 3359.19 4508.3 3358.13 4505.25 3358.13C4353.28 3358.14 4201.3 3358.14 4049.31 3358.13C4030.54 3358.13 4030.54 3358.12 4030.52 3340.1C4030.46 3304.87 4030.46 3304.87 3995.12 3304.85C3989.55 3304.85 3983.99 3304.85 3977.28 3304.85C3977.28 3249.55 3977.28 3195.59 3977.28 3140.76C3980.56 3140.42 3983.89 3139.77 3987.23 3139.76C4034.12 3139.69 4081.03 3139.96 4127.92 3139.52C4138.01 3139.42 4142.07 3142.21 4141.28 3152.7C4140.49 3163.5 4141.39 3174.42 4141.06 3185.25C4140.82 3193.17 4144.13 3195.74 4151.91 3195.72C4235.29 3195.52 4318.65 3195.48 4402.04 3195.75C4411.53 3195.79 4413.88 3191.9 4413.84 3183.33C4413.61 3136.45 4413.37 3089.54 4413.99 3042.65C4414.15 3030.67 4408 3030.66 4399.39 3030.66C4282.14 3030.78 4164.9 3030.75 4047.65 3030.74C4030.56 3030.74 4030.55 3030.7 4030.51 3013.71C4030.47 3005.03 4030.18 2996.33 4030.57 2987.66C4030.96 2978.91 4027.8 2974.83 4018.54 2975.36C4009.02 2975.92 3999.39 2974.86 3989.9 2975.62C3979.14 2976.49 3975.77 2972.66 3975.87 2961.74C3976.38 2905.73 3976.1 2849.71 3976.1 2793.69C3976.1 2732.45 3976.1 2671.23 3976.1 2610C3976.13 2604.92 3976.13 2599.84 3976.13 2592.89Z" fill="#216EFF"/>
<path fill-rule="evenodd" clip-rule="evenodd" d="M2931.62 2012.88C2931.62 2137.08 2931.62 2261.27 2931.62 2385.46C2931.62 2403.58 2931.61 2403.58 2914.12 2403.62C2877.09 2403.73 2877.09 2403.73 2877.05 2441.28C2877.04 2459.01 2877.04 2459.04 2859.59 2459.04C2702.82 2459.05 2546.06 2458.9 2389.29 2459.3C2376.82 2459.33 2372.06 2456.04 2373.36 2443.38C2374.33 2433.94 2373.2 2424.28 2373.63 2414.75C2374.03 2406.15 2370.32 2403.18 2362.04 2403.52C2351.2 2403.97 2340.32 2403.38 2329.47 2403.71C2321.77 2403.93 2318.63 2401 2318.65 2393.08C2318.81 2307.09 2318.8 2221.11 2318.68 2135.14C2318.67 2127.61 2321.1 2124.11 2329.19 2124.16C2377.83 2124.38 2426.46 2124.47 2475.11 2124.07C2485.41 2124 2485.92 2129.34 2485.89 2137.16C2485.7 2184.05 2486.17 2230.96 2485.54 2277.85C2485.38 2289.68 2488.55 2293.35 2500.71 2293.28C2584.08 2292.77 2667.45 2292.83 2750.82 2293.22C2761.53 2293.28 2764.89 2290.31 2764.87 2279.37C2764.55 2120.87 2764.52 1962.38 2764.89 1803.87C2764.91 1792.18 2761.33 1789.22 2750.05 1789.37C2704.03 1789.96 2657.98 1789.25 2611.96 1789.86C2600.29 1790.01 2597.21 1786.16 2597.33 1774.91C2597.87 1728.89 2597.84 1682.85 2597.35 1636.83C2597.23 1626.14 2600.31 1622.75 2611.28 1622.8C2713.33 1623.19 2815.37 1623.23 2917.42 1622.76C2929.3 1622.71 2931.85 1626.66 2931.82 1637.7C2931.49 1762.76 2931.61 1887.83 2931.62 2012.88Z" fill="#216EFF"/>
<path fill-rule="evenodd" clip-rule="evenodd" d="M2342.74 879.44C2218.55 924.882 2095.16 970.031 1970.61 1015.61C1972.55 1011.58 1974.26 1007.42 1976.44 1003.51C2034.1 900.028 2150.81 840.35 2268.4 854.531C2294.85 857.724 2319.4 867.16 2342.74 879.44Z" fill="white"/>
<path fill-rule="evenodd" clip-rule="evenodd" d="M2807.86 971.76C2852.68 905.926 2911.36 862.916 2987.55 846.65C3050.31 833.251 3110.06 844.131 3167.89 877.933C3046.75 909.498 2928.72 940.26 2807.86 971.76Z" fill="white"/>
<path fill-rule="evenodd" clip-rule="evenodd" d="M2485.55 2778.33C2497.86 2779.45 2509 2780.44 2520.16 2781.45C2535.26 2782.82 2536.63 2784.52 2533.96 2799.05C2531.93 2810.1 2529.52 2821.09 2527.7 2832.18C2526.24 2840.98 2521.42 2845.09 2512.61 2844.81C2510.88 2844.77 2509.14 2844.98 2507.4 2845.09C2484.6 2846.6 2484.6 2846.6 2483.84 2870.15C2483.36 2884.82 2478.98 2889.75 2464.58 2890.7C2454.26 2891.39 2443.88 2891.91 2433.56 2891.53C2425.26 2891.23 2421.57 2885.78 2421.48 2877.53C2421.37 2867.13 2420.92 2856.73 2420.56 2846.34C2420.33 2839.71 2417.73 2835.7 2410.18 2836.44C2406.78 2836.77 2403.26 2836.03 2399.8 2835.82C2378.39 2834.53 2378.37 2834.53 2378.61 2813.35C2378.66 2809.45 2378.8 2805.54 2378.92 2801.63C2379.58 2781.58 2380.48 2780.76 2400.68 2781.79C2420.91 2782.84 2423.96 2779.51 2425.05 2759.31C2426.77 2727.57 2423.66 2732.68 2452.04 2732.84C2485.06 2733.04 2489.75 2738.83 2485.88 2771.54C2485.68 2773.21 2485.71 2774.9 2485.55 2778.33ZM2520.04 2797.09C2517.33 2796.33 2515.74 2795.59 2514.09 2795.46C2477.6 2792.39 2477.66 2792.39 2472.94 2756.24C2472.52 2753.03 2471.02 2747.46 2469.54 2747.3C2460.16 2746.26 2450.54 2745.65 2441.27 2746.87C2439.34 2747.12 2437.99 2755.68 2437.3 2760.53C2433.02 2790.75 2433.09 2790.63 2400.16 2794.63C2397.39 2794.95 2393.39 2798.49 2392.84 2801.15C2391.39 2808.1 2391.55 2815.38 2390.93 2824.27C2400.02 2824.27 2407.74 2824.47 2415.43 2824.23C2426.61 2823.89 2432.34 2828.01 2431.52 2840.26C2430.89 2849.72 2431.85 2859.31 2432.51 2868.81C2432.71 2871.61 2434.08 2876.63 2435.22 2876.73C2444.58 2877.47 2454.18 2878.23 2463.33 2876.69C2465.5 2876.34 2467.18 2867.5 2467.54 2862.45C2469.55 2833.55 2474.41 2828.01 2502.34 2829.16C2513.84 2829.63 2518.1 2825.19 2518.98 2815.07C2519.49 2809.12 2519.68 2803.17 2520.04 2797.09Z" fill="white"/>
</g>
<defs>
<filter id="filter0_i_575_768" x="0" y="0" width="4578.47" height="3711.51" filterUnits="userSpaceOnUse" color-interpolation-filters="sRGB">
<feFlood flood-opacity="0" result="BackgroundImageFix"/>
<feBlend mode="normal" in="SourceGraphic" in2="BackgroundImageFix" result="shape"/>
<feColorMatrix in="SourceAlpha" type="matrix" values="0 0 0 0 0 0 0 0 0 0 0 0 0 0 0 0 0 0 127 0" result="hardAlpha"/>
<feOffset dy="210.506"/>
<feGaussianBlur stdDeviation="105.253"/>
<feComposite in2="hardAlpha" operator="arithmetic" k2="-1" k3="1"/>
<feColorMatrix type="matrix" values="0 0 0 0 0 0 0 0 0 0 0 0 0 0 0 0 0 0 0.25 0"/>
<feBlend mode="normal" in2="shape" result="effect1_innerShadow_575_768"/>
</filter>
</defs>
</svg>
