<svg width="72" height="72" viewBox="0 0 72 72" fill="none" xmlns="http://www.w3.org/2000/svg">
<g clip-path="url(#clip0_693_771)">
<path d="M1.54963e-07 22.5009C-0.000610805 27.7088 1.80538 32.7556 5.11 36.7807C8.41461 40.8059 13.0132 43.56 18.1215 44.5734C18.4157 41.3499 19.243 38.1976 20.5695 35.2449C16.6275 33.9129 14.094 30.8889 13.5 26.5959H11.25V24.6789H13.347V22.7259C13.344 22.5159 13.35 22.3134 13.365 22.1184H11.25V20.1969H13.5495C14.562 14.5809 18.9585 11.2509 25.5645 11.2509C26.9865 11.2509 28.2195 11.3904 29.25 11.6334V14.9319C28.0462 14.6658 26.8152 14.542 25.5825 14.5629C21.447 14.5629 18.6615 16.6599 17.7795 20.1969H26.406V22.1184H17.496C17.484 22.3284 17.4795 22.5489 17.4825 22.7799V24.6789H26.406V26.6004H17.685C18.216 29.3094 19.791 31.2354 22.2075 32.1309C24.5769 28.2068 27.8355 24.8944 31.7204 22.4611C35.6053 20.0278 40.0077 18.5416 44.5725 18.1224C43.4689 12.6572 40.3762 7.79612 35.8935 4.48073C31.4108 1.16534 25.8571 -0.368357 20.3083 0.176721C14.7595 0.721798 9.61048 3.30686 5.85861 7.43115C2.10673 11.5555 0.0190665 16.9254 1.54963e-07 22.5009ZM72 47.2509C72 53.815 69.3924 60.1103 64.7509 64.7518C60.1094 69.3934 53.8141 72.0009 47.25 72.0009C40.6859 72.0009 34.3906 69.3934 29.7491 64.7518C25.1076 60.1103 22.5 53.815 22.5 47.2509C22.5 40.6868 25.1076 34.3916 29.7491 29.75C34.3906 25.1085 40.6859 22.5009 47.25 22.5009C53.8141 22.5009 60.1094 25.1085 64.7509 29.75C69.3924 34.3916 72 40.6868 72 47.2509ZM37.125 53.1999C37.4355 56.9574 40.482 59.8824 45.963 60.2289V63.0009H48.393V60.2109C54.0585 59.8239 57.375 56.8809 57.375 52.6059C57.375 48.7134 54.8415 46.7109 50.31 45.6759L48.393 45.2259V37.6839C50.823 37.9539 52.371 39.2454 52.74 41.0364H57.006C56.691 37.4184 53.5005 34.5879 48.393 34.2774V31.5009H45.963V34.3314C41.121 34.7949 37.827 37.6254 37.827 41.6304C37.827 45.1719 40.275 47.4264 44.352 48.3489L45.963 48.7314V56.7414C43.47 56.3814 41.823 55.0494 41.4495 53.1999H37.125ZM45.945 44.6724C43.551 44.1324 42.255 43.0344 42.255 41.3784C42.255 39.5334 43.6545 38.1429 45.963 37.7379V44.6679H45.9405L45.945 44.6724ZM48.744 49.3704C51.6465 50.0229 52.9875 51.0804 52.9875 52.9524C52.9875 55.0854 51.3225 56.5524 48.3975 56.8224V49.2894L48.744 49.3704Z" fill="white"/>
</g>
<defs>
<clipPath id="clip0_693_771">
<rect width="72" height="72" fill="white"/>
</clipPath>
</defs>
</svg>
