<svg width="221" height="248" viewBox="0 0 221 248" fill="none" xmlns="http://www.w3.org/2000/svg">
<path d="M194.507 0H26.5837C12.4223 0 0.892578 11.4025 0.892578 25.5324V193.104C0.892578 207.233 12.4215 218.636 26.5829 218.636H168.692L162.05 195.706L178.09 210.456L193.253 224.337L220.197 247.886V25.5324C220.197 11.4025 208.668 0 194.507 0ZM146.135 161.871C146.135 161.871 141.623 156.54 137.864 151.831C154.281 147.244 160.546 137.081 160.546 137.081C155.408 140.428 150.521 142.783 146.135 144.393C139.869 146.997 133.854 148.731 127.964 149.723C115.933 151.954 104.905 151.335 95.507 149.6C88.3633 148.236 82.2228 146.253 77.0854 144.27C74.2028 143.154 71.07 141.791 67.9363 140.056C67.5611 139.808 67.185 139.684 66.8089 139.436C66.5588 139.312 66.4329 139.188 66.3078 139.065C64.0522 137.825 62.7989 136.958 62.7989 136.958C62.7989 136.958 68.8144 146.873 84.7294 151.582C80.9703 156.293 76.3333 161.87 76.3333 161.87C48.6375 161.002 38.1118 143.031 38.1118 143.031C38.1118 103.121 56.1573 70.7715 56.1573 70.7715C74.2028 57.3855 91.371 57.7574 91.371 57.7574L92.6243 59.2453C70.0677 65.6887 59.6661 75.4815 59.6661 75.4815C59.6661 75.4815 62.4229 73.9945 67.0591 71.8873C80.4683 66.0615 91.1209 64.4509 95.507 64.0789C96.2583 63.9544 96.8853 63.8307 97.6375 63.8307C106.035 62.7487 114.534 62.6656 122.952 63.5833C134.856 64.9465 147.639 68.4169 160.671 75.4815C160.671 75.4815 150.772 66.1861 129.467 59.7409L131.222 57.7583C131.222 57.7583 148.39 57.3855 166.436 70.7723C166.436 70.7723 184.482 103.121 184.482 143.031C184.482 143.031 173.829 161.002 146.135 161.87V161.871ZM87.8622 103.989C80.7193 103.989 75.0808 110.186 75.0808 117.746C75.0808 125.307 80.8444 131.504 87.8622 131.504C95.0058 131.504 100.644 125.307 100.644 117.746C100.77 110.186 95.005 103.989 87.8622 103.989ZM133.603 103.989C126.46 103.989 120.82 110.186 120.82 117.746C120.82 125.307 126.586 131.504 133.603 131.504C140.746 131.504 146.385 125.307 146.385 117.746C146.385 110.186 140.746 103.989 133.603 103.989Z" fill="#5F5F5F"/>
</svg>
