<svg width="221" height="220" viewBox="0 0 221 220" fill="none" xmlns="http://www.w3.org/2000/svg">
<path d="M159.682 0H61.4188C28.049 0 0.900391 27.1499 0.900391 60.5197V158.783C0.900391 192.154 28.049 219.303 61.4188 219.303H159.682C193.055 219.303 220.203 192.153 220.203 158.783V60.5197C220.205 27.1499 193.055 0 159.682 0ZM200.747 158.783C200.747 181.425 182.326 199.845 159.684 199.845H61.4188C38.7779 199.847 20.358 181.425 20.358 158.783V60.5197C20.358 37.8788 38.7779 19.4576 61.4188 19.4576H159.682C182.325 19.4576 200.746 37.8788 200.746 60.5197V158.783H200.747Z" fill="#5F5F5F"/>
<path d="M110.554 53.144C79.3943 53.144 54.0449 78.4934 54.0449 109.653C54.0449 140.811 79.3943 166.159 110.554 166.159C141.713 166.159 167.063 140.811 167.063 109.653C167.063 78.4934 141.713 53.144 110.554 53.144ZM110.554 146.7C90.1245 146.7 73.5025 130.081 73.5025 109.652C73.5025 89.2211 90.1232 72.6004 110.554 72.6004C130.984 72.6004 147.605 89.2211 147.605 109.652C147.605 130.081 130.983 146.7 110.554 146.7Z" fill="#5F5F5F"/>
<path d="M169.431 36.6475C165.682 36.6475 162 38.1652 159.352 40.8244C156.691 43.4706 155.162 47.1546 155.162 50.9164C155.162 54.6665 156.693 58.3492 159.352 61.0084C161.998 63.6546 165.682 65.1853 169.431 65.1853C173.193 65.1853 176.864 63.6546 179.523 61.0084C182.182 58.3492 183.7 54.6652 183.7 50.9164C183.7 47.1546 182.182 43.4706 179.523 40.8244C176.877 38.1652 173.193 36.6475 169.431 36.6475Z" fill="#5F5F5F"/>
</svg>
