<svg width="73" height="72" viewBox="0 0 73 72" fill="none" xmlns="http://www.w3.org/2000/svg">
<g clip-path="url(#clip0_693_776)">
<path d="M21.0238 30.213L19.0663 36H14.0713L22.4503 13.5H28.2283L36.5713 36H31.3198L29.3623 30.213H21.0238ZM28.3768 26.901L25.3213 17.802H25.1008L22.0453 26.901H28.3768Z" fill="white"/>
<path d="M0.571289 9C0.571289 6.61305 1.5195 4.32387 3.20733 2.63604C4.89516 0.948212 7.18434 0 9.57129 0L41.0713 0C43.4582 0 45.7474 0.948212 47.4352 2.63604C49.1231 4.32387 50.0713 6.61305 50.0713 9V22.5H63.5713C65.9582 22.5 68.2474 23.4482 69.9352 25.136C71.6231 26.8239 72.5713 29.1131 72.5713 31.5V63C72.5713 65.3869 71.6231 67.6761 69.9352 69.364C68.2474 71.0518 65.9582 72 63.5713 72H32.0713C29.6843 72 27.3952 71.0518 25.7073 69.364C24.0195 67.6761 23.0713 65.3869 23.0713 63V49.5H9.57129C7.18434 49.5 4.89516 48.5518 3.20733 46.864C1.5195 45.1761 0.571289 42.8869 0.571289 40.5V9ZM9.57129 4.5C8.37781 4.5 7.23322 4.97411 6.38931 5.81802C5.54539 6.66193 5.07129 7.80653 5.07129 9V40.5C5.07129 41.6935 5.54539 42.8381 6.38931 43.682C7.23322 44.5259 8.37781 45 9.57129 45H41.0713C42.2648 45 43.4094 44.5259 44.2533 43.682C45.0972 42.8381 45.5713 41.6935 45.5713 40.5V9C45.5713 7.80653 45.0972 6.66193 44.2533 5.81802C43.4094 4.97411 42.2648 4.5 41.0713 4.5H9.57129ZM41.6923 49.4775C42.5593 50.8305 43.5043 52.0995 44.5273 53.2845C41.1613 55.872 36.9988 57.789 32.0713 59.0985C32.8723 60.075 34.1008 61.956 34.5688 63C39.6313 61.3845 43.9288 59.202 47.5558 56.277C51.0523 59.2695 55.3813 61.5195 60.7408 62.901C61.3393 61.758 62.6038 59.8725 63.5713 58.896C58.5088 57.7575 54.3148 55.773 50.8813 53.118C53.9458 49.7565 56.3803 45.6885 58.1758 40.7115H63.5713V36H50.0713V40.7115H53.5138C52.0828 44.5095 50.1838 47.6685 47.7898 50.2965C47.1281 49.5924 46.5047 48.8534 45.9223 48.0825C44.6514 48.8946 43.1969 49.3743 41.6923 49.4775Z" fill="white"/>
</g>
<defs>
<clipPath id="clip0_693_776">
<rect width="72" height="72" fill="white" transform="translate(0.571289)"/>
</clipPath>
</defs>
</svg>
