<svg width="73" height="72" viewBox="0 0 73 72" fill="none" xmlns="http://www.w3.org/2000/svg">
<g clip-path="url(#clip0_693_773)">
<path d="M55.0331 40.23C52.6751 45.009 49.4801 49.77 46.2131 54.045C43.1106 58.0725 39.797 61.9329 36.2861 65.61C32.7753 61.9329 29.4617 58.0725 26.3591 54.045C23.0921 49.77 19.8971 45.009 17.5391 40.23C15.1541 35.4015 13.7861 30.879 13.7861 27C13.7861 21.0326 16.1567 15.3097 20.3762 11.0901C24.5958 6.87053 30.3188 4.5 36.2861 4.5C42.2535 4.5 47.9765 6.87053 52.196 11.0901C56.4156 15.3097 58.7861 21.0326 58.7861 27C58.7861 30.879 57.4136 35.4015 55.0331 40.23ZM36.2861 72C36.2861 72 63.2861 46.413 63.2861 27C63.2861 19.8392 60.4415 12.9716 55.378 7.90812C50.3145 2.84463 43.447 0 36.2861 0C29.1253 0 22.2577 2.84463 17.1942 7.90812C12.1308 12.9716 9.28613 19.8392 9.28613 27C9.28613 46.413 36.2861 72 36.2861 72Z" fill="white"/>
<path d="M36.2861 36C33.8992 36 31.61 35.0518 29.9222 33.364C28.2343 31.6761 27.2861 29.3869 27.2861 27C27.2861 24.6131 28.2343 22.3239 29.9222 20.636C31.61 18.9482 33.8992 18 36.2861 18C38.6731 18 40.9623 18.9482 42.6501 20.636C44.3379 22.3239 45.2861 24.6131 45.2861 27C45.2861 29.3869 44.3379 31.6761 42.6501 33.364C40.9623 35.0518 38.6731 36 36.2861 36ZM36.2861 40.5C39.8666 40.5 43.3003 39.0777 45.8321 36.5459C48.3638 34.0142 49.7861 30.5804 49.7861 27C49.7861 23.4196 48.3638 19.9858 45.8321 17.4541C43.3003 14.9223 39.8666 13.5 36.2861 13.5C32.7057 13.5 29.2719 14.9223 26.7402 17.4541C24.2085 19.9858 22.7861 23.4196 22.7861 27C22.7861 30.5804 24.2085 34.0142 26.7402 36.5459C29.2719 39.0777 32.7057 40.5 36.2861 40.5Z" fill="white"/>
</g>
<defs>
<clipPath id="clip0_693_773">
<rect width="72" height="72" fill="white" transform="translate(0.286133)"/>
</clipPath>
</defs>
</svg>
