<svg width="226" height="107" viewBox="0 0 226 107" fill="none" xmlns="http://www.w3.org/2000/svg">
<path d="M0 60.4976H225.723" stroke="#7D7D7D" stroke-width="1.16341"/>
<path d="M32.7423 23.1884C31.4392 23.1884 30.3009 22.9843 29.3274 22.5761C28.3697 22.1522 27.6239 21.5556 27.0901 20.7862C26.572 20.0012 26.313 19.0984 26.313 18.0779V17.6305C26.313 17.552 26.3365 17.4892 26.3836 17.4421C26.4464 17.3793 26.5171 17.3478 26.5956 17.3478H29.8691C29.9476 17.3478 30.0104 17.3793 30.0575 17.4421C30.1203 17.4892 30.1517 17.552 30.1517 17.6305V17.9131C30.1517 18.4312 30.4108 18.8865 30.9289 19.279C31.447 19.6558 32.1457 19.8442 33.0249 19.8442C33.7157 19.8442 34.226 19.6951 34.5557 19.3968C34.8854 19.0984 35.0502 18.753 35.0502 18.3605C35.0502 18.0465 34.9482 17.7953 34.7441 17.6069C34.5557 17.4028 34.2966 17.2379 33.9669 17.1123C33.6372 16.971 33.1269 16.7826 32.4361 16.5471C32.3419 16.5 32.2477 16.4686 32.1535 16.4529C32.0593 16.4215 31.973 16.3901 31.8945 16.3587C30.8739 16.029 29.9869 15.6758 29.2332 15.2989C28.4796 14.9064 27.8359 14.3726 27.3021 13.6975C26.7683 13.0067 26.5014 12.1589 26.5014 11.154C26.5014 10.1806 26.7526 9.33279 27.255 8.61057C27.7731 7.87265 28.4875 7.30743 29.3981 6.91492C30.3087 6.52241 31.3371 6.32616 32.4832 6.32616C33.6922 6.32616 34.7755 6.54596 35.7332 6.98557C36.7066 7.42519 37.4681 8.04535 38.0176 8.84607C38.5671 9.64679 38.8419 10.5653 38.8419 11.6015V11.9312C38.8419 12.0097 38.8105 12.0804 38.7477 12.1432C38.7006 12.1903 38.6378 12.2138 38.5593 12.2138H35.2858C35.2073 12.2138 35.1366 12.1903 35.0738 12.1432C35.0267 12.0804 35.0031 12.0097 35.0031 11.9312V11.7664C35.0031 11.2168 34.7598 10.7301 34.2731 10.3062C33.7864 9.8823 33.1348 9.67034 32.3184 9.67034C31.7061 9.67034 31.2272 9.79595 30.8818 10.0472C30.5364 10.2984 30.3637 10.6516 30.3637 11.1069C30.3637 11.4523 30.4736 11.7428 30.6934 11.9783C30.9132 12.1981 31.2507 12.4101 31.7061 12.6142C32.1771 12.8026 32.8914 13.0538 33.8492 13.3678C34.9482 13.7446 35.8039 14.0743 36.4162 14.3569C37.0285 14.6395 37.6016 15.1027 38.1354 15.7464C38.6849 16.3744 38.9597 17.2065 38.9597 18.2428C38.9597 19.2633 38.7006 20.1425 38.1825 20.8804C37.6644 21.6184 36.9343 22.1914 35.9923 22.5996C35.0659 22.9921 33.9826 23.1884 32.7423 23.1884ZM51.9745 15.8406C52.053 16.3116 52.0766 16.9318 52.0452 17.7011C52.0295 17.8895 51.9274 17.9837 51.739 17.9837H44.5561C44.5247 17.9837 44.4933 17.9994 44.4618 18.0308C44.4304 18.0465 44.4226 18.0701 44.4383 18.1015C44.4697 18.2742 44.5482 18.5018 44.6738 18.7844C44.8622 19.1141 45.1448 19.3811 45.5216 19.5852C45.8984 19.7893 46.3616 19.8913 46.9111 19.8913C47.9002 19.8913 48.6774 19.5695 49.2426 18.9257C49.3054 18.8472 49.3761 18.808 49.4546 18.808C49.5331 18.808 49.5959 18.8394 49.643 18.9022L51.4564 20.9746C51.5192 21.0217 51.5506 21.0845 51.5506 21.1631C51.5506 21.2259 51.5192 21.2887 51.4564 21.3515C50.9069 21.9481 50.2239 22.4034 49.4075 22.7174C48.6068 23.0314 47.7275 23.1884 46.7698 23.1884C45.3411 23.1884 44.1243 22.8822 43.1195 22.2699C42.1303 21.6419 41.416 20.7705 40.9764 19.6558C40.6466 18.8708 40.4818 17.8895 40.4818 16.712C40.4818 15.8956 40.6074 15.1105 40.8586 14.3569C41.2668 13.1951 41.9341 12.2845 42.8604 11.625C43.8024 10.9499 44.9172 10.6124 46.2046 10.6124C47.2408 10.6124 48.1671 10.84 48.9836 11.2953C49.8 11.7349 50.4594 12.3551 50.9618 13.1558C51.4799 13.9409 51.8175 14.8358 51.9745 15.8406ZM46.2046 13.9801C45.3882 13.9801 44.8465 14.3648 44.5796 15.1341C44.5168 15.3068 44.4776 15.4716 44.4618 15.6287C44.4304 15.7072 44.4618 15.7464 44.5561 15.7464H47.9002C47.963 15.7464 47.9944 15.715 47.9944 15.6522C47.9944 15.5266 47.963 15.3696 47.9002 15.1812C47.7903 14.7887 47.5862 14.4904 47.2879 14.2863C47.0053 14.0822 46.6442 13.9801 46.2046 13.9801ZM61.0369 11.1069C61.0369 11.0284 61.0604 10.9656 61.1075 10.9185C61.1703 10.8557 61.241 10.8243 61.3195 10.8243H64.6637C64.7422 10.8243 64.805 10.8557 64.8521 10.9185C64.9149 10.9656 64.9463 11.0284 64.9463 11.1069V21.6341C64.9463 23.785 64.3261 25.3237 63.0858 26.25C61.8455 27.1763 60.2754 27.6395 58.3757 27.6395C57.6692 27.6395 56.9234 27.5767 56.1384 27.4511C55.9814 27.4354 55.9029 27.3333 55.9029 27.1449L56.0206 24.2246C56.0206 24.1147 56.052 24.0362 56.1148 23.9891C56.1776 23.9577 56.2561 23.9577 56.3503 23.9891C56.994 24.1304 57.5906 24.2011 58.1402 24.2011C59.0351 24.2011 59.7416 23.997 60.2597 23.5888C60.7778 23.1806 61.0369 22.5368 61.0369 21.6576L60.872 21.8225C60.3068 22.3877 59.4904 22.6703 58.4228 22.6703C57.3865 22.6703 56.4367 22.4426 55.5731 21.9873C54.7096 21.532 54.0895 20.7313 53.7126 19.5852C53.4614 18.8315 53.3358 17.9052 53.3358 16.8062C53.3358 15.5973 53.485 14.6081 53.7833 13.8388C54.1444 12.8654 54.7175 12.0882 55.5025 11.5073C56.3032 10.9264 57.2295 10.6359 58.2815 10.6359C59.4119 10.6359 60.2833 10.9813 60.8956 11.6721C60.927 11.7035 60.9584 11.7192 60.9898 11.7192C61.0212 11.7035 61.0369 11.6721 61.0369 11.625V11.1069ZM60.8249 18.5489C60.9662 18.1878 61.0369 17.5991 61.0369 16.7826C61.0369 16.3587 61.0212 16.029 60.9898 15.7935C60.9584 15.5423 60.8956 15.3068 60.8014 15.087C60.6758 14.7416 60.4717 14.4747 60.1891 14.2863C59.9222 14.0822 59.5925 13.9801 59.1999 13.9801C58.462 13.9801 57.9361 14.3491 57.6221 15.087C57.3865 15.5266 57.2688 16.1075 57.2688 16.8297C57.2688 17.5991 57.3708 18.1643 57.5749 18.5254C57.7163 18.8551 57.9282 19.122 58.2108 19.3261C58.4934 19.5302 58.831 19.6323 59.2235 19.6323C60.0242 19.6323 60.558 19.2712 60.8249 18.5489ZM73.9539 11.1069C73.9539 11.0284 73.9774 10.9656 74.0245 10.9185C74.0873 10.8557 74.158 10.8243 74.2365 10.8243H77.5807C77.6592 10.8243 77.722 10.8557 77.7691 10.9185C77.8319 10.9656 77.8633 11.0284 77.8633 11.1069V22.7174C77.8633 22.7959 77.8319 22.8665 77.7691 22.9293C77.722 22.9764 77.6592 23 77.5807 23H74.2365C74.158 23 74.0873 22.9764 74.0245 22.9293C73.9774 22.8665 73.9539 22.7959 73.9539 22.7174V21.8931C73.9539 21.846 73.9382 21.8146 73.9068 21.7989C73.8754 21.7832 73.844 21.7989 73.8126 21.846C73.1845 22.7409 72.1954 23.1884 70.8452 23.1884C69.6519 23.1884 68.6864 22.8116 67.9484 22.058C67.2105 21.3044 66.8416 20.2524 66.8416 18.9022V11.1069C66.8416 11.0284 66.8651 10.9656 66.9122 10.9185C66.975 10.8557 67.0457 10.8243 67.1242 10.8243H70.4684C70.5469 10.8243 70.6097 10.8557 70.6568 10.9185C70.7196 10.9656 70.751 11.0284 70.751 11.1069V18.0073C70.751 18.5568 70.8923 18.9964 71.1749 19.3261C71.4575 19.6558 71.8422 19.8207 72.3289 19.8207C72.7685 19.8207 73.1296 19.6872 73.4122 19.4203C73.7105 19.1534 73.8911 18.8001 73.9539 18.3605V11.1069ZM86.3139 10.6595C86.8791 10.6595 87.3187 10.7615 87.6327 10.9656C87.7583 11.0441 87.8054 11.1619 87.774 11.3189L87.2324 14.5924C87.2167 14.7808 87.1068 14.8358 86.9027 14.7573C86.62 14.6945 86.3531 14.6631 86.1019 14.6631C85.835 14.6631 85.6309 14.6788 85.4896 14.7102C85.0029 14.773 84.5868 14.9614 84.2414 15.2754C83.9117 15.5894 83.7469 16.0055 83.7469 16.5236V22.7174C83.7469 22.7959 83.7155 22.8665 83.6527 22.9293C83.6056 22.9764 83.5428 23 83.4643 23H80.1201C80.0416 23 79.9709 22.9764 79.9081 22.9293C79.861 22.8665 79.8375 22.7959 79.8375 22.7174V11.1069C79.8375 11.0284 79.861 10.9656 79.9081 10.9185C79.9709 10.8557 80.0416 10.8243 80.1201 10.8243H83.4643C83.5428 10.8243 83.6056 10.8557 83.6527 10.9185C83.7155 10.9656 83.7469 11.0284 83.7469 11.1069V11.8606C83.7469 11.9077 83.7626 11.9391 83.794 11.9548C83.8254 11.9705 83.8489 11.9548 83.8646 11.9077C84.4926 11.0755 85.3091 10.6595 86.3139 10.6595ZM94.2275 23.1884C92.8144 23.1884 91.6133 22.8116 90.6242 22.058C89.6351 21.3044 88.9757 20.2838 88.646 18.9964C88.4575 18.3527 88.3633 17.6462 88.3633 16.8768C88.3633 16.0133 88.4654 15.2518 88.6695 14.5924C89.0306 13.3521 89.6979 12.3865 90.6713 11.6957C91.6604 10.9892 92.8537 10.6359 94.251 10.6359C95.6326 10.6359 96.8023 10.9892 97.76 11.6957C98.7178 12.3865 99.385 13.3442 99.7618 14.5689C99.9817 15.2754 100.092 16.029 100.092 16.8297C100.092 17.552 100.005 18.2428 99.8325 18.9022C99.5028 20.221 98.8434 21.2651 97.8542 22.0344C96.8651 22.8037 95.6562 23.1884 94.2275 23.1884ZM94.2275 19.8442C94.6828 19.8442 95.0596 19.7029 95.3579 19.4203C95.6562 19.122 95.876 18.7216 96.0173 18.2192C96.1115 17.811 96.1586 17.3635 96.1586 16.8768C96.1586 16.4058 96.1037 15.9505 95.9937 15.5109C95.8681 15.0242 95.6562 14.6474 95.3579 14.3805C95.0596 14.1136 94.6828 13.9801 94.2275 13.9801C93.3168 13.9801 92.7202 14.4904 92.4376 15.5109C92.3434 15.8877 92.2963 16.343 92.2963 16.8768C92.2963 17.3635 92.3434 17.811 92.4376 18.2192C92.5632 18.7216 92.7752 19.122 93.0735 19.4203C93.3875 19.7029 93.7721 19.8442 94.2275 19.8442ZM106.611 27.6866C106.564 27.6866 106.524 27.6552 106.493 27.5924C106.462 27.5453 106.446 27.4825 106.446 27.404V24.7663C106.446 24.5779 106.532 24.4837 106.705 24.4837C107.71 24.4837 108.432 24.3895 108.872 24.2011C109.311 24.0127 109.578 23.6359 109.672 23.0707C109.688 23.0393 109.688 22.9921 109.672 22.9293L105.881 11.1305C105.865 11.0991 105.857 11.0598 105.857 11.0127C105.857 10.8714 105.943 10.8008 106.116 10.8008H109.672C109.829 10.8008 109.931 10.8793 109.978 11.0363L111.603 18.0073C111.619 18.0701 111.643 18.1015 111.674 18.1015C111.705 18.1015 111.729 18.0701 111.745 18.0073L113.37 11.0363C113.417 10.8793 113.519 10.8008 113.676 10.8008H117.161C117.256 10.8008 117.326 10.8322 117.373 10.895C117.42 10.9421 117.428 11.0206 117.397 11.1305L113.417 23.2355C113.024 24.413 112.608 25.3001 112.169 25.8967C111.745 26.509 111.117 26.9565 110.285 27.2391C109.468 27.5374 108.298 27.6866 106.776 27.6866H106.611ZM134.889 14.2156C135.14 15.0634 135.265 15.9741 135.265 16.9475C135.265 18.0622 135.1 19.0513 134.771 19.9149C134.41 20.8883 133.829 21.6812 133.028 22.2935C132.243 22.8901 131.285 23.1884 130.155 23.1884C129.024 23.1884 128.169 22.8194 127.588 22.0815C127.556 22.0344 127.525 22.0187 127.494 22.0344C127.462 22.0501 127.447 22.0815 127.447 22.1286V27.0272C127.447 27.1057 127.415 27.1685 127.352 27.2156C127.305 27.2784 127.242 27.3098 127.164 27.3098H123.82C123.741 27.3098 123.671 27.2784 123.608 27.2156C123.561 27.1685 123.537 27.1057 123.537 27.0272V11.1069C123.537 11.0284 123.561 10.9656 123.608 10.9185C123.671 10.8557 123.741 10.8243 123.82 10.8243H127.164C127.242 10.8243 127.305 10.8557 127.352 10.9185C127.415 10.9656 127.447 11.0284 127.447 11.1069V11.8841C127.447 11.9312 127.462 11.9626 127.494 11.9783C127.525 11.9783 127.556 11.9626 127.588 11.9312C128.216 11.0677 129.119 10.6359 130.296 10.6359C131.364 10.6359 132.306 10.9578 133.122 11.6015C133.939 12.2295 134.527 13.1009 134.889 14.2156ZM130.72 18.9964C131.034 18.4626 131.191 17.7561 131.191 16.8768C131.191 16.029 131.05 15.3617 130.767 14.875C130.437 14.2784 129.943 13.9801 129.283 13.9801C128.655 13.9801 128.177 14.2784 127.847 14.875C127.58 15.4088 127.447 16.084 127.447 16.9004C127.447 17.7796 127.596 18.4861 127.894 19.0199C128.224 19.5695 128.687 19.8442 129.283 19.8442C129.927 19.8442 130.406 19.5616 130.72 18.9964ZM143.443 10.6595C144.008 10.6595 144.447 10.7615 144.761 10.9656C144.887 11.0441 144.934 11.1619 144.903 11.3189L144.361 14.5924C144.345 14.7808 144.235 14.8358 144.031 14.7573C143.749 14.6945 143.482 14.6631 143.231 14.6631C142.964 14.6631 142.76 14.6788 142.618 14.7102C142.132 14.773 141.716 14.9614 141.37 15.2754C141.04 15.5894 140.876 16.0055 140.876 16.5236V22.7174C140.876 22.7959 140.844 22.8665 140.781 22.9293C140.734 22.9764 140.671 23 140.593 23H137.249C137.17 23 137.1 22.9764 137.037 22.9293C136.99 22.8665 136.966 22.7959 136.966 22.7174V11.1069C136.966 11.0284 136.99 10.9656 137.037 10.9185C137.1 10.8557 137.17 10.8243 137.249 10.8243H140.593C140.671 10.8243 140.734 10.8557 140.781 10.9185C140.844 10.9656 140.876 11.0284 140.876 11.1069V11.8606C140.876 11.9077 140.891 11.9391 140.923 11.9548C140.954 11.9705 140.978 11.9548 140.993 11.9077C141.621 11.0755 142.438 10.6595 143.443 10.6595ZM151.356 23.1884C149.943 23.1884 148.742 22.8116 147.753 22.058C146.764 21.3044 146.104 20.2838 145.775 18.9964C145.586 18.3527 145.492 17.6462 145.492 16.8768C145.492 16.0133 145.594 15.2518 145.798 14.5924C146.159 13.3521 146.827 12.3865 147.8 11.6957C148.789 10.9892 149.982 10.6359 151.38 10.6359C152.761 10.6359 153.931 10.9892 154.889 11.6957C155.846 12.3865 156.514 13.3442 156.891 14.5689C157.11 15.2754 157.22 16.029 157.22 16.8297C157.22 17.552 157.134 18.2428 156.961 18.9022C156.631 20.221 155.972 21.2651 154.983 22.0344C153.994 22.8037 152.785 23.1884 151.356 23.1884ZM151.356 19.8442C151.811 19.8442 152.188 19.7029 152.487 19.4203C152.785 19.122 153.005 18.7216 153.146 18.2192C153.24 17.811 153.287 17.3635 153.287 16.8768C153.287 16.4058 153.232 15.9505 153.122 15.5109C152.997 15.0242 152.785 14.6474 152.487 14.3805C152.188 14.1136 151.811 13.9801 151.356 13.9801C150.445 13.9801 149.849 14.4904 149.566 15.5109C149.472 15.8877 149.425 16.343 149.425 16.8768C149.425 17.3635 149.472 17.811 149.566 18.2192C149.692 18.7216 149.904 19.122 150.202 19.4203C150.516 19.7029 150.901 19.8442 151.356 19.8442ZM166.029 13.674C166.029 13.7525 165.997 13.8231 165.934 13.8859C165.887 13.933 165.824 13.9566 165.746 13.9566H163.603C163.524 13.9566 163.485 13.9958 163.485 14.0743V18.3605C163.485 19.2555 163.846 19.7029 164.568 19.7029H165.44C165.518 19.7029 165.581 19.7343 165.628 19.7971C165.691 19.8442 165.722 19.907 165.722 19.9855V22.7174C165.722 22.8901 165.628 22.9921 165.44 23.0236C164.686 23.055 164.137 23.0707 163.791 23.0707C162.425 23.0707 161.413 22.8587 160.753 22.4348C160.094 21.9952 159.756 21.1709 159.741 19.962V14.0743C159.741 13.9958 159.701 13.9566 159.623 13.9566H158.28C158.202 13.9566 158.131 13.933 158.068 13.8859C158.021 13.8231 157.998 13.7525 157.998 13.674V11.1069C157.998 11.0284 158.021 10.9656 158.068 10.9185C158.131 10.8557 158.202 10.8243 158.28 10.8243H159.623C159.701 10.8243 159.741 10.7851 159.741 10.7066V7.85695C159.741 7.77844 159.764 7.71564 159.811 7.66854C159.874 7.60574 159.945 7.57434 160.023 7.57434H163.202C163.281 7.57434 163.344 7.60574 163.391 7.66854C163.454 7.71564 163.485 7.77844 163.485 7.85695V10.7066C163.485 10.7851 163.524 10.8243 163.603 10.8243H165.746C165.824 10.8243 165.887 10.8557 165.934 10.9185C165.997 10.9656 166.029 11.0284 166.029 11.1069V13.674ZM178.789 15.8406C178.868 16.3116 178.891 16.9318 178.86 17.7011C178.844 17.8895 178.742 17.9837 178.554 17.9837H171.371C171.339 17.9837 171.308 17.9994 171.276 18.0308C171.245 18.0465 171.237 18.0701 171.253 18.1015C171.284 18.2742 171.363 18.5018 171.488 18.7844C171.677 19.1141 171.959 19.3811 172.336 19.5852C172.713 19.7893 173.176 19.8913 173.726 19.8913C174.715 19.8913 175.492 19.5695 176.057 18.9257C176.12 18.8472 176.191 18.808 176.269 18.808C176.348 18.808 176.41 18.8394 176.458 18.9022L178.271 20.9746C178.334 21.0217 178.365 21.0845 178.365 21.1631C178.365 21.2259 178.334 21.2887 178.271 21.3515C177.721 21.9481 177.039 22.4034 176.222 22.7174C175.421 23.0314 174.542 23.1884 173.584 23.1884C172.156 23.1884 170.939 22.8822 169.934 22.2699C168.945 21.6419 168.231 20.7705 167.791 19.6558C167.461 18.8708 167.296 17.8895 167.296 16.712C167.296 15.8956 167.422 15.1105 167.673 14.3569C168.081 13.1951 168.749 12.2845 169.675 11.625C170.617 10.9499 171.732 10.6124 173.019 10.6124C174.055 10.6124 174.982 10.84 175.798 11.2953C176.615 11.7349 177.274 12.3551 177.776 13.1558C178.295 13.9409 178.632 14.8358 178.789 15.8406ZM173.019 13.9801C172.203 13.9801 171.661 14.3648 171.394 15.1341C171.331 15.3068 171.292 15.4716 171.276 15.6287C171.245 15.7072 171.276 15.7464 171.371 15.7464H174.715C174.778 15.7464 174.809 15.715 174.809 15.6522C174.809 15.5266 174.778 15.3696 174.715 15.1812C174.605 14.7887 174.401 14.4904 174.103 14.2863C173.82 14.0822 173.459 13.9801 173.019 13.9801ZM187.851 11.1069C187.851 11.0284 187.875 10.9656 187.922 10.9185C187.985 10.8557 188.056 10.8243 188.134 10.8243H191.478C191.557 10.8243 191.62 10.8557 191.667 10.9185C191.729 10.9656 191.761 11.0284 191.761 11.1069V21.6341C191.761 23.785 191.141 25.3237 189.9 26.25C188.66 27.1763 187.09 27.6395 185.19 27.6395C184.484 27.6395 183.738 27.5767 182.953 27.4511C182.796 27.4354 182.717 27.3333 182.717 27.1449L182.835 24.2246C182.835 24.1147 182.867 24.0362 182.929 23.9891C182.992 23.9577 183.071 23.9577 183.165 23.9891C183.809 24.1304 184.405 24.2011 184.955 24.2011C185.85 24.2011 186.556 23.997 187.074 23.5888C187.592 23.1806 187.851 22.5368 187.851 21.6576L187.687 21.8225C187.121 22.3877 186.305 22.6703 185.237 22.6703C184.201 22.6703 183.251 22.4426 182.388 21.9873C181.524 21.532 180.904 20.7313 180.527 19.5852C180.276 18.8315 180.15 17.9052 180.15 16.8062C180.15 15.5973 180.3 14.6081 180.598 13.8388C180.959 12.8654 181.532 12.0882 182.317 11.5073C183.118 10.9264 184.044 10.6359 185.096 10.6359C186.226 10.6359 187.098 10.9813 187.71 11.6721C187.742 11.7035 187.773 11.7192 187.804 11.7192C187.836 11.7035 187.851 11.6721 187.851 11.625V11.1069ZM187.64 18.5489C187.781 18.1878 187.851 17.5991 187.851 16.7826C187.851 16.3587 187.836 16.029 187.804 15.7935C187.773 15.5423 187.71 15.3068 187.616 15.087C187.49 14.7416 187.286 14.4747 187.004 14.2863C186.737 14.0822 186.407 13.9801 186.015 13.9801C185.277 13.9801 184.751 14.3491 184.437 15.087C184.201 15.5266 184.083 16.1075 184.083 16.8297C184.083 17.5991 184.185 18.1643 184.39 18.5254C184.531 18.8551 184.743 19.122 185.025 19.3261C185.308 19.5302 185.646 19.6323 186.038 19.6323C186.839 19.6323 187.373 19.2712 187.64 18.5489ZM195.752 9.741C195.156 9.741 194.661 9.55259 194.268 9.17578C193.892 8.78327 193.703 8.28871 193.703 7.69209C193.703 7.07978 193.892 6.58521 194.268 6.2084C194.661 5.83159 195.156 5.64319 195.752 5.64319C196.349 5.64319 196.836 5.83159 197.212 6.2084C197.605 6.58521 197.801 7.07978 197.801 7.69209C197.801 8.27301 197.605 8.75972 197.212 9.15223C196.836 9.54474 196.349 9.741 195.752 9.741ZM194.057 23C193.978 23 193.907 22.9764 193.845 22.9293C193.797 22.8665 193.774 22.7959 193.774 22.7174V11.1069C193.774 11.0284 193.797 10.9656 193.845 10.9185C193.907 10.8557 193.978 10.8243 194.057 10.8243H197.401C197.479 10.8243 197.542 10.8557 197.589 10.9185C197.652 10.9656 197.683 11.0284 197.683 11.1069V22.7174C197.683 22.7959 197.652 22.8665 197.589 22.9293C197.542 22.9764 197.479 23 197.401 23H194.057ZM207.243 6.79717C207.243 6.71867 207.266 6.65586 207.313 6.60876C207.376 6.54596 207.447 6.51456 207.525 6.51456H210.869C210.948 6.51456 211.011 6.54596 211.058 6.60876C211.121 6.65586 211.152 6.71867 211.152 6.79717V22.7174C211.152 22.7959 211.121 22.8665 211.058 22.9293C211.011 22.9764 210.948 23 210.869 23H207.525C207.447 23 207.376 22.9764 207.313 22.9293C207.266 22.8665 207.243 22.7959 207.243 22.7174V21.9402C207.243 21.8931 207.227 21.8696 207.196 21.8696C207.164 21.8539 207.133 21.8617 207.101 21.8931C206.473 22.7566 205.571 23.1884 204.393 23.1884C203.325 23.1884 202.376 22.8665 201.543 22.2228C200.727 21.5791 200.146 20.6999 199.801 19.5852C199.549 18.7373 199.424 17.8267 199.424 16.8533C199.424 15.7543 199.589 14.7651 199.918 13.8859C200.28 12.9125 200.853 12.1275 201.638 11.5308C202.438 10.9342 203.404 10.6359 204.534 10.6359C205.665 10.6359 206.52 11.0049 207.101 11.7428C207.133 11.7899 207.164 11.8056 207.196 11.7899C207.227 11.7742 207.243 11.7428 207.243 11.6957V6.79717ZM206.842 18.9257C207.109 18.4233 207.243 17.7561 207.243 16.9239C207.243 16.0133 207.094 15.3068 206.795 14.8044C206.466 14.2549 206.002 13.9801 205.406 13.9801C204.762 13.9801 204.283 14.2627 203.969 14.8279C203.655 15.3617 203.498 16.0604 203.498 16.9239C203.498 17.7561 203.639 18.4312 203.922 18.9493C204.252 19.5459 204.746 19.8442 205.406 19.8442C206.034 19.8442 206.513 19.5381 206.842 18.9257ZM218.788 23.1884C217.375 23.1884 216.174 22.8116 215.185 22.058C214.196 21.3044 213.536 20.2838 213.207 18.9964C213.018 18.3527 212.924 17.6462 212.924 16.8768C212.924 16.0133 213.026 15.2518 213.23 14.5924C213.591 13.3521 214.259 12.3865 215.232 11.6957C216.221 10.9892 217.414 10.6359 218.812 10.6359C220.193 10.6359 221.363 10.9892 222.321 11.6957C223.279 12.3865 223.946 13.3442 224.323 14.5689C224.542 15.2754 224.652 16.029 224.652 16.8297C224.652 17.552 224.566 18.2428 224.393 18.9022C224.064 20.221 223.404 21.2651 222.415 22.0344C221.426 22.8037 220.217 23.1884 218.788 23.1884ZM218.788 19.8442C219.243 19.8442 219.62 19.7029 219.919 19.4203C220.217 19.122 220.437 18.7216 220.578 18.2192C220.672 17.811 220.719 17.3635 220.719 16.8768C220.719 16.4058 220.664 15.9505 220.554 15.5109C220.429 15.0242 220.217 14.6474 219.919 14.3805C219.62 14.1136 219.243 13.9801 218.788 13.9801C217.878 13.9801 217.281 14.4904 216.998 15.5109C216.904 15.8877 216.857 16.343 216.857 16.8768C216.857 17.3635 216.904 17.811 216.998 18.2192C217.124 18.7216 217.336 19.122 217.634 19.4203C217.948 19.7029 218.333 19.8442 218.788 19.8442Z" fill="#84FF82"/>
<path d="M5.88 84.1453C4.86913 84.1453 3.98954 83.9878 3.24124 83.6727C2.50607 83.3576 1.93499 82.9113 1.52802 82.3336C1.13417 81.756 0.937253 81.0799 0.937253 80.3054V79.7343C0.937253 79.603 1.00289 79.5374 1.13417 79.5374H2.57171C2.70299 79.5374 2.76863 79.603 2.76863 79.7343V80.2069C2.76863 80.8764 3.05745 81.4278 3.63509 81.861C4.21272 82.2943 5.00698 82.5109 6.01784 82.5109C6.92368 82.5109 7.60635 82.3205 8.06583 81.9398C8.52532 81.5591 8.75506 81.0602 8.75506 80.4432C8.75506 80.0362 8.63691 79.6883 8.4006 79.3995C8.16429 79.1107 7.8164 78.8481 7.35691 78.6118C6.91056 78.3624 6.25415 78.067 5.38769 77.7257C4.42934 77.3581 3.66791 77.0233 3.1034 76.7214C2.55201 76.4194 2.09253 76.0256 1.72494 75.5398C1.35735 75.041 1.17356 74.4174 1.17356 73.6691C1.17356 72.5401 1.57397 71.6539 2.37478 71.0106C3.18873 70.3673 4.28493 70.0457 5.66338 70.0457C6.63486 70.0457 7.48819 70.2098 8.22337 70.538C8.95855 70.8662 9.52306 71.3257 9.9169 71.9165C10.3239 72.5072 10.5274 73.1899 10.5274 73.9645V74.3583C10.5274 74.4896 10.4617 74.5552 10.3304 74.5552H8.85352C8.72224 74.5552 8.6566 74.4896 8.6566 74.3583V74.0629C8.6566 73.3803 8.38091 72.8157 7.82953 72.3694C7.29127 71.9099 6.54297 71.6802 5.58461 71.6802C4.77067 71.6802 4.14052 71.8508 3.69416 72.1922C3.24781 72.5204 3.02463 72.9995 3.02463 73.6297C3.02463 74.0629 3.13622 74.4174 3.35939 74.6931C3.58257 74.9688 3.91078 75.2182 4.344 75.4414C4.79036 75.6514 5.46646 75.9271 6.3723 76.2684C7.3044 76.636 8.05927 76.9774 8.63691 77.2924C9.21454 77.5944 9.69372 78.0014 10.0744 78.5134C10.4552 79.0122 10.6455 79.6358 10.6455 80.3841C10.6455 81.5394 10.2188 82.4584 9.36552 83.141C8.52532 83.8106 7.36348 84.1453 5.88 84.1453ZM13.4003 83.9878C13.269 83.9878 13.2033 83.9222 13.2033 83.7909V70.4002C13.2033 70.2689 13.269 70.2032 13.4003 70.2032H14.8969C15.0282 70.2032 15.0938 70.2689 15.0938 70.4002V83.7909C15.0938 83.9222 15.0282 83.9878 14.8969 83.9878H13.4003ZM26.4319 70.4002C26.4319 70.2689 26.4975 70.2032 26.6288 70.2032H28.1254C28.2567 70.2032 28.3223 70.2689 28.3223 70.4002V83.7909C28.3223 83.9222 28.2567 83.9878 28.1254 83.9878H26.6879C26.596 83.9878 26.5172 83.9418 26.4516 83.8499L20.2879 73.7872C20.2748 73.7478 20.2551 73.7347 20.2288 73.7478C20.2026 73.7478 20.1895 73.7675 20.1895 73.8069L20.2092 83.7909C20.2092 83.9222 20.1435 83.9878 20.0122 83.9878H18.5156C18.3843 83.9878 18.3187 83.9222 18.3187 83.7909V70.4002C18.3187 70.2689 18.3843 70.2032 18.5156 70.2032H19.9728C20.0647 70.2032 20.1435 70.2492 20.2092 70.3411L26.3531 80.4038C26.3663 80.4432 26.3859 80.4629 26.4122 80.4629C26.4385 80.4498 26.4516 80.4235 26.4516 80.3841L26.4319 70.4002ZM44.274 70.2032C44.4052 70.2032 44.4709 70.2689 44.4709 70.4002V71.6605C44.4709 71.7918 44.4052 71.8574 44.274 71.8574H40.493C40.4405 71.8574 40.4143 71.8836 40.4143 71.9362V83.7909C40.4143 83.9222 40.3486 83.9878 40.2174 83.9878H38.7208C38.5895 83.9878 38.5238 83.9222 38.5238 83.7909V71.9362C38.5238 71.8836 38.4976 71.8574 38.4451 71.8574H34.8414C34.7101 71.8574 34.6445 71.7918 34.6445 71.6605V70.4002C34.6445 70.2689 34.7101 70.2032 34.8414 70.2032H44.274ZM54.0339 83.9878C53.9158 83.9878 53.837 83.9353 53.7976 83.8303L53.0887 81.5263C53.0756 81.4869 53.0493 81.4672 53.0099 81.4672H47.4764C47.437 81.4672 47.4108 81.4869 47.3976 81.5263L46.6887 83.8303C46.6493 83.9353 46.5706 83.9878 46.4524 83.9878H44.8573C44.7129 83.9878 44.6604 83.9156 44.6998 83.7712L49.0124 70.3608C49.0518 70.2558 49.1305 70.2032 49.2487 70.2032H51.2179C51.3361 70.2032 51.4148 70.2558 51.4542 70.3608L55.8062 83.7712L55.8259 83.8499C55.8259 83.9418 55.7668 83.9878 55.6487 83.9878H54.0339ZM47.8899 79.8721C47.8768 79.8984 47.8768 79.9246 47.8899 79.9509C47.9162 79.964 47.9425 79.9706 47.9687 79.9706H52.4979C52.5242 79.9706 52.5439 79.964 52.557 79.9509C52.5832 79.9246 52.5898 79.8984 52.5767 79.8721L50.2924 72.5663C50.2793 72.5401 50.2596 72.5269 50.2333 72.5269C50.2071 72.5269 50.1874 72.5401 50.1742 72.5663L47.8899 79.8721ZM65.9257 83.9878C65.8207 83.9878 65.7485 83.9418 65.7091 83.8499L62.9522 77.962C62.939 77.9226 62.9128 77.9029 62.8734 77.9029H60.0377C59.9852 77.9029 59.959 77.9292 59.959 77.9817V83.7909C59.959 83.9222 59.8933 83.9878 59.762 83.9878H58.2654C58.1341 83.9878 58.0685 83.9222 58.0685 83.7909V70.4002C58.0685 70.2689 58.1341 70.2032 58.2654 70.2032H63.5626C64.3503 70.2032 65.0395 70.3673 65.6303 70.6956C66.2342 71.0238 66.7003 71.4832 67.0285 72.074C67.3567 72.6648 67.5208 73.3474 67.5208 74.122C67.5208 75.041 67.2779 75.8221 66.7921 76.4654C66.3195 77.0955 65.6566 77.5222 64.8032 77.7454C64.7507 77.7716 64.7376 77.8044 64.7639 77.8438L67.6192 83.7515C67.6323 83.7777 67.6389 83.8106 67.6389 83.8499C67.6389 83.9418 67.5864 83.9878 67.4814 83.9878H65.9257ZM60.0377 71.8377C59.9852 71.8377 59.959 71.864 59.959 71.9165V76.3275C59.959 76.38 59.9852 76.4063 60.0377 76.4063H63.3263C64.0221 76.4063 64.5801 76.2028 65.0002 75.7958C65.4203 75.3757 65.6303 74.8244 65.6303 74.1417C65.6303 73.4459 65.4203 72.888 65.0002 72.4679C64.5801 72.0478 64.0221 71.8377 63.3263 71.8377H60.0377ZM70.3423 83.9878C70.211 83.9878 70.1454 83.9222 70.1454 83.7909V70.4002C70.1454 70.2689 70.211 70.2032 70.3423 70.2032H71.8389C71.9702 70.2032 72.0358 70.2689 72.0358 70.4002V83.7909C72.0358 83.9222 71.9702 83.9878 71.8389 83.9878H70.3423ZM84.3979 71.6408C84.3979 71.7721 84.3323 71.8377 84.201 71.8377H77.2299C77.1774 71.8377 77.1512 71.864 77.1512 71.9165V76.1503C77.1512 76.2028 77.1774 76.2291 77.2299 76.2291H82.0151C82.1464 76.2291 82.2121 76.2947 82.2121 76.426V77.6666C82.2121 77.7979 82.1464 77.8635 82.0151 77.8635H77.2299C77.1774 77.8635 77.1512 77.8898 77.1512 77.9423V83.7909C77.1512 83.9222 77.0855 83.9878 76.9542 83.9878H75.4576C75.3264 83.9878 75.2607 83.9222 75.2607 83.7909V70.4002C75.2607 70.2689 75.3264 70.2032 75.4576 70.2032H84.201C84.3323 70.2032 84.3979 70.2689 84.3979 70.4002V71.6408ZM93.5914 83.9878C93.4732 83.9878 93.3945 83.9353 93.3551 83.8303L92.6462 81.5263C92.633 81.4869 92.6068 81.4672 92.5674 81.4672H87.0339C86.9945 81.4672 86.9682 81.4869 86.9551 81.5263L86.2462 83.8303C86.2068 83.9353 86.128 83.9878 86.0099 83.9878H84.4148C84.2704 83.9878 84.2179 83.9156 84.2573 83.7712L88.5699 70.3608C88.6093 70.2558 88.688 70.2032 88.8062 70.2032H90.7754C90.8936 70.2032 90.9723 70.2558 91.0117 70.3608L95.3637 83.7712L95.3834 83.8499C95.3834 83.9418 95.3243 83.9878 95.2062 83.9878H93.5914ZM87.4474 79.8721C87.4343 79.8984 87.4343 79.9246 87.4474 79.9509C87.4737 79.964 87.4999 79.9706 87.5262 79.9706H92.0554C92.0817 79.9706 92.1014 79.964 92.1145 79.9509C92.1407 79.9246 92.1473 79.8984 92.1342 79.8721L89.8499 72.5663C89.8367 72.5401 89.8171 72.5269 89.7908 72.5269C89.7645 72.5269 89.7448 72.5401 89.7317 72.5663L87.4474 79.8721ZM101.765 83.9878C101.634 83.9878 101.568 83.9222 101.568 83.7909V70.4002C101.568 70.2689 101.634 70.2032 101.765 70.2032H106.531C107.896 70.2032 108.986 70.5643 109.8 71.2863C110.614 71.9952 111.021 72.947 111.021 74.1417V80.0494C111.021 81.244 110.614 82.2024 109.8 82.9244C108.986 83.6333 107.896 83.9878 106.531 83.9878H101.765ZM103.459 82.2746C103.459 82.3271 103.485 82.3533 103.537 82.3533H106.609C107.371 82.3533 107.975 82.1236 108.421 81.6641C108.881 81.1915 109.117 80.5613 109.13 79.7737V74.4174C109.13 73.6297 108.9 73.0061 108.441 72.5466C107.994 72.074 107.384 71.8377 106.609 71.8377H103.537C103.485 71.8377 103.459 71.864 103.459 71.9165V82.2746ZM122.898 71.6408C122.898 71.7721 122.833 71.8377 122.701 71.8377H115.711C115.658 71.8377 115.632 71.864 115.632 71.9165V76.1503C115.632 76.2028 115.658 76.2291 115.711 76.2291H120.515C120.647 76.2291 120.712 76.2947 120.712 76.426V77.6666C120.712 77.7979 120.647 77.8635 120.515 77.8635H115.711C115.658 77.8635 115.632 77.8898 115.632 77.9423V82.2746C115.632 82.3271 115.658 82.3533 115.711 82.3533H122.701C122.833 82.3533 122.898 82.419 122.898 82.5503V83.7909C122.898 83.9222 122.833 83.9878 122.701 83.9878H113.938C113.807 83.9878 113.741 83.9222 113.741 83.7909V70.4002C113.741 70.2689 113.807 70.2032 113.938 70.2032H122.701C122.833 70.2032 122.898 70.2689 122.898 70.4002V71.6408ZM134.848 70.1836C135.649 70.1836 136.352 70.3542 136.955 70.6956C137.573 71.0238 138.045 71.4898 138.373 72.0937C138.715 72.6976 138.885 73.3934 138.885 74.1811C138.885 74.9688 138.715 75.658 138.373 76.2488C138.032 76.8395 137.546 77.299 136.916 77.6272C136.299 77.9554 135.584 78.1195 134.77 78.1195H131.304C131.251 78.1195 131.225 78.1458 131.225 78.1983V83.7909C131.225 83.9222 131.159 83.9878 131.028 83.9878H129.532C129.4 83.9878 129.335 83.9222 129.335 83.7909V70.3805C129.335 70.2492 129.4 70.1836 129.532 70.1836H134.848ZM134.592 76.5835C135.314 76.5835 135.892 76.3669 136.325 75.9337C136.772 75.5005 136.995 74.9294 136.995 74.2205C136.995 73.4984 136.772 72.9208 136.325 72.4875C135.892 72.0412 135.314 71.818 134.592 71.818H131.304C131.251 71.818 131.225 71.8443 131.225 71.8968V76.5048C131.225 76.5573 131.251 76.5835 131.304 76.5835H134.592ZM148.803 83.9878C148.684 83.9878 148.606 83.9353 148.566 83.8303L147.857 81.5263C147.844 81.4869 147.818 81.4672 147.779 81.4672H142.245C142.206 81.4672 142.179 81.4869 142.166 81.5263L141.457 83.8303C141.418 83.9353 141.339 83.9878 141.221 83.9878H139.626C139.482 83.9878 139.429 83.9156 139.469 83.7712L143.781 70.3608C143.821 70.2558 143.899 70.2032 144.017 70.2032H145.987C146.105 70.2032 146.184 70.2558 146.223 70.3608L150.575 83.7712L150.595 83.8499C150.595 83.9418 150.536 83.9878 150.417 83.9878H148.803ZM142.659 79.8721C142.646 79.8984 142.646 79.9246 142.659 79.9509C142.685 79.964 142.711 79.9706 142.737 79.9706H147.267C147.293 79.9706 147.313 79.964 147.326 79.9509C147.352 79.9246 147.359 79.8984 147.345 79.8721L145.061 72.5663C145.048 72.5401 145.028 72.5269 145.002 72.5269C144.976 72.5269 144.956 72.5401 144.943 72.5663L142.659 79.8721ZM156.98 84.1453C156.034 84.1453 155.194 83.9615 154.459 83.5939C153.737 83.2132 153.172 82.6815 152.765 81.9989C152.372 81.3031 152.175 80.5088 152.175 79.6161V74.5749C152.175 73.6691 152.372 72.8748 152.765 72.1922C153.172 71.5095 153.737 70.9844 154.459 70.6168C155.194 70.2361 156.034 70.0457 156.98 70.0457C157.925 70.0457 158.758 70.2295 159.48 70.5971C160.202 70.9647 160.76 71.4767 161.154 72.1331C161.561 72.7764 161.765 73.505 161.765 74.3189V74.5355C161.765 74.6668 161.699 74.7325 161.568 74.7325H160.071C159.94 74.7325 159.874 74.6668 159.874 74.5355V74.3583C159.874 73.5706 159.605 72.9339 159.067 72.4482C158.542 71.9493 157.846 71.6999 156.98 71.6999C156.1 71.6999 155.391 71.9559 154.853 72.4679C154.328 72.9798 154.065 73.6625 154.065 74.5158V79.6752C154.065 80.5285 154.341 81.2112 154.892 81.7232C155.444 82.2352 156.166 82.4912 157.058 82.4912C157.925 82.4912 158.607 82.268 159.106 81.8217C159.618 81.3622 159.874 80.7386 159.874 79.9509V78.4346C159.874 78.3821 159.848 78.3558 159.796 78.3558H157.137C157.006 78.3558 156.94 78.2902 156.94 78.1589V76.938C156.94 76.8067 157.006 76.7411 157.137 76.7411H161.568C161.699 76.7411 161.765 76.8067 161.765 76.938V79.4389C161.765 80.9486 161.332 82.1105 160.465 82.9244C159.612 83.7384 158.45 84.1453 156.98 84.1453ZM169.115 84.165C168.157 84.165 167.31 83.9681 166.575 83.5743C165.84 83.1804 165.269 82.629 164.862 81.9201C164.455 81.1981 164.251 80.371 164.251 79.4389V74.7521C164.251 73.82 164.455 72.9995 164.862 72.2906C165.269 71.5817 165.84 71.0303 166.575 70.6365C167.31 70.2426 168.157 70.0457 169.115 70.0457C170.087 70.0457 170.94 70.2426 171.675 70.6365C172.411 71.0303 172.982 71.5817 173.389 72.2906C173.796 72.9995 173.999 73.82 173.999 74.7521V79.4389C173.999 80.371 173.796 81.1981 173.389 81.9201C172.982 82.629 172.411 83.1804 171.675 83.5743C170.94 83.9681 170.087 84.165 169.115 84.165ZM169.115 82.5306C170.008 82.5306 170.73 82.2549 171.282 81.7035C171.833 81.1521 172.109 80.4235 172.109 79.5177V74.7325C172.109 73.8135 171.833 73.0783 171.282 72.5269C170.73 71.9624 170.008 71.6802 169.115 71.6802C168.223 71.6802 167.501 71.9624 166.949 72.5269C166.411 73.0783 166.142 73.8135 166.142 74.7325V79.5177C166.142 80.4235 166.411 81.1521 166.949 81.7035C167.501 82.2549 168.223 82.5306 169.115 82.5306ZM181.129 84.1453C180.118 84.1453 179.239 83.9878 178.49 83.6727C177.755 83.3576 177.184 82.9113 176.777 82.3336C176.383 81.756 176.186 81.0799 176.186 80.3054V79.7343C176.186 79.603 176.252 79.5374 176.383 79.5374H177.821C177.952 79.5374 178.018 79.603 178.018 79.7343V80.2069C178.018 80.8764 178.307 81.4278 178.884 81.861C179.462 82.2943 180.256 82.5109 181.267 82.5109C182.173 82.5109 182.855 82.3205 183.315 81.9398C183.774 81.5591 184.004 81.0602 184.004 80.4432C184.004 80.0362 183.886 79.6883 183.65 79.3995C183.413 79.1107 183.065 78.8481 182.606 78.6118C182.16 78.3624 181.503 78.067 180.637 77.7257C179.678 77.3581 178.917 77.0233 178.352 76.7214C177.801 76.4194 177.342 76.0256 176.974 75.5398C176.606 75.041 176.423 74.4174 176.423 73.6691C176.423 72.5401 176.823 71.6539 177.624 71.0106C178.438 70.3673 179.534 70.0457 180.912 70.0457C181.884 70.0457 182.737 70.2098 183.472 70.538C184.208 70.8662 184.772 71.3257 185.166 71.9165C185.573 72.5072 185.776 73.1899 185.776 73.9645V74.3583C185.776 74.4896 185.711 74.5552 185.58 74.5552H184.103C183.971 74.5552 183.906 74.4896 183.906 74.3583V74.0629C183.906 73.3803 183.63 72.8157 183.079 72.3694C182.54 71.9099 181.792 71.6802 180.834 71.6802C180.02 71.6802 179.39 71.8508 178.943 72.1922C178.497 72.5204 178.274 72.9995 178.274 73.6297C178.274 74.0629 178.385 74.4174 178.608 74.6931C178.832 74.9688 179.16 75.2182 179.593 75.4414C180.039 75.6514 180.716 75.9271 181.621 76.2684C182.553 76.636 183.308 76.9774 183.886 77.2924C184.464 77.5944 184.943 78.0014 185.324 78.5134C185.704 79.0122 185.895 79.6358 185.895 80.3841C185.895 81.5394 185.468 82.4584 184.615 83.141C183.774 83.8106 182.613 84.1453 181.129 84.1453ZM187.946 85.6813C187.88 85.6813 187.827 85.6616 187.788 85.6222C187.762 85.5829 187.755 85.5303 187.768 85.4647L188.556 81.093C188.582 80.9749 188.654 80.9158 188.773 80.9158H190.072C190.138 80.9158 190.184 80.9355 190.21 80.9749C190.25 81.0143 190.263 81.0668 190.25 81.1324L189.088 85.5041C189.061 85.6222 188.989 85.6813 188.871 85.6813H187.946Z" fill="white"/>
<path d="M5.88 103.601C4.86913 103.601 3.98954 103.444 3.24124 103.129C2.50607 102.814 1.93499 102.367 1.52802 101.79C1.13417 101.212 0.937253 100.536 0.937253 99.7614V99.1903C0.937253 99.059 1.00289 98.9934 1.13417 98.9934H2.57171C2.70299 98.9934 2.76863 99.059 2.76863 99.1903V99.6629C2.76863 100.332 3.05745 100.884 3.63509 101.317C4.21272 101.75 5.00698 101.967 6.01784 101.967C6.92368 101.967 7.60635 101.777 8.06583 101.396C8.52532 101.015 8.75506 100.516 8.75506 99.8993C8.75506 99.4923 8.63691 99.1444 8.4006 98.8556C8.16429 98.5667 7.8164 98.3042 7.35691 98.0679C6.91056 97.8184 6.25415 97.5231 5.38769 97.1817C4.42934 96.8141 3.66791 96.4794 3.1034 96.1774C2.55201 95.8755 2.09253 95.4816 1.72494 94.9959C1.35735 94.497 1.17356 93.8734 1.17356 93.1251C1.17356 91.9961 1.57397 91.11 2.37478 90.4667C3.18873 89.8234 4.28493 89.5018 5.66338 89.5018C6.63486 89.5018 7.48819 89.6659 8.22337 89.9941C8.95855 90.3223 9.52306 90.7818 9.9169 91.3725C10.3239 91.9633 10.5274 92.646 10.5274 93.4205V93.8144C10.5274 93.9456 10.4617 94.0113 10.3304 94.0113H8.85352C8.72224 94.0113 8.6566 93.9456 8.6566 93.8144V93.519C8.6566 92.8363 8.38091 92.2718 7.82953 91.8254C7.29127 91.366 6.54297 91.1362 5.58461 91.1362C4.77067 91.1362 4.14052 91.3069 3.69416 91.6482C3.24781 91.9764 3.02463 92.4556 3.02463 93.0857C3.02463 93.519 3.13622 93.8734 3.35939 94.1491C3.58257 94.4248 3.91078 94.6743 4.344 94.8974C4.79036 95.1075 5.46646 95.3832 6.3723 95.7245C7.3044 96.0921 8.05927 96.4334 8.63691 96.7485C9.21454 97.0504 9.69372 97.4574 10.0744 97.9694C10.4552 98.4683 10.6455 99.0919 10.6455 99.8402C10.6455 100.995 10.2188 101.914 9.36552 102.597C8.52532 103.267 7.36348 103.601 5.88 103.601ZM13.4003 103.444C13.269 103.444 13.2033 103.378 13.2033 103.247V89.8562C13.2033 89.7249 13.269 89.6593 13.4003 89.6593H14.8969C15.0282 89.6593 15.0938 89.7249 15.0938 89.8562V103.247C15.0938 103.378 15.0282 103.444 14.8969 103.444H13.4003ZM26.4319 89.8562C26.4319 89.7249 26.4975 89.6593 26.6288 89.6593H28.1254C28.2567 89.6593 28.3223 89.7249 28.3223 89.8562V103.247C28.3223 103.378 28.2567 103.444 28.1254 103.444H26.6879C26.596 103.444 26.5172 103.398 26.4516 103.306L20.2879 93.2433C20.2748 93.2039 20.2551 93.1908 20.2288 93.2039C20.2026 93.2039 20.1895 93.2236 20.1895 93.263L20.2092 103.247C20.2092 103.378 20.1435 103.444 20.0122 103.444H18.5156C18.3843 103.444 18.3187 103.378 18.3187 103.247V89.8562C18.3187 89.7249 18.3843 89.6593 18.5156 89.6593H19.9728C20.0647 89.6593 20.1435 89.7053 20.2092 89.7971L26.3531 99.8599C26.3663 99.8993 26.3859 99.9189 26.4122 99.9189C26.4385 99.9058 26.4516 99.8796 26.4516 99.8402L26.4319 89.8562ZM39.9417 103.621C38.9964 103.621 38.1562 103.437 37.4211 103.07C36.699 102.689 36.1345 102.157 35.7275 101.475C35.3337 100.779 35.1368 99.9846 35.1368 99.0919V93.9916C35.1368 93.0989 35.3337 92.3177 35.7275 91.6482C36.1345 90.9656 36.699 90.4404 37.4211 90.0728C38.1562 89.6921 38.9964 89.5018 39.9417 89.5018C40.8869 89.5018 41.7205 89.6856 42.4426 90.0531C43.1646 90.4076 43.7226 90.913 44.1164 91.5694C44.5234 92.2259 44.7269 92.9873 44.7269 93.8537V93.8734C44.7269 93.9391 44.7072 93.9916 44.6678 94.031C44.6284 94.0704 44.5825 94.09 44.53 94.09L43.0333 94.1688C42.9021 94.1688 42.8364 94.1097 42.8364 93.9916V93.9325C42.8364 93.0923 42.5739 92.4162 42.0487 91.9042C41.5236 91.3922 40.8213 91.1362 39.9417 91.1362C39.0621 91.1362 38.3532 91.3922 37.8149 91.9042C37.2898 92.4162 37.0272 93.0923 37.0272 93.9325V99.1706C37.0272 100.011 37.2898 100.687 37.8149 101.199C38.3532 101.711 39.0621 101.967 39.9417 101.967C40.8213 101.967 41.5236 101.711 42.0487 101.199C42.5739 100.687 42.8364 100.011 42.8364 99.1706V99.1313C42.8364 99.0131 42.9021 98.954 43.0333 98.954L44.53 99.0328C44.6612 99.0328 44.7269 99.0984 44.7269 99.2297C44.7269 100.096 44.5234 100.864 44.1164 101.534C43.7226 102.19 43.1646 102.702 42.4426 103.07C41.7205 103.437 40.8869 103.621 39.9417 103.621ZM52.1788 103.601C51.2205 103.601 50.3737 103.418 49.6385 103.05C48.9165 102.669 48.352 102.138 47.945 101.455C47.538 100.759 47.3346 99.9649 47.3346 99.0722V89.8562C47.3346 89.7249 47.4002 89.6593 47.5315 89.6593H49.0281C49.1594 89.6593 49.225 89.7249 49.225 89.8562V99.1116C49.225 99.9649 49.4941 100.654 50.0324 101.179C50.5838 101.704 51.2993 101.967 52.1788 101.967C53.0584 101.967 53.7673 101.704 54.3056 101.179C54.8439 100.654 55.113 99.9649 55.113 99.1116V89.8562C55.113 89.7249 55.1786 89.6593 55.3099 89.6593H56.8065C56.9378 89.6593 57.0034 89.7249 57.0034 89.8562V99.0722C57.0034 99.9649 56.7999 100.759 56.393 101.455C55.9991 102.138 55.4346 102.669 54.6994 103.05C53.9774 103.418 53.1372 103.601 52.1788 103.601ZM64.366 103.621C63.4077 103.621 62.5609 103.424 61.8257 103.03C61.0905 102.636 60.5195 102.085 60.1125 101.376C59.7055 100.654 59.502 99.827 59.502 98.8949V94.2082C59.502 93.2761 59.7055 92.4556 60.1125 91.7467C60.5195 91.0378 61.0905 90.4864 61.8257 90.0925C62.5609 89.6987 63.4077 89.5018 64.366 89.5018C65.3375 89.5018 66.1908 89.6987 66.926 90.0925C67.6612 90.4864 68.2322 91.0378 68.6392 91.7467C69.0462 92.4556 69.2497 93.2761 69.2497 94.2082V98.8949C69.2497 99.827 69.0462 100.654 68.6392 101.376C68.2322 102.085 67.6612 102.636 66.926 103.03C66.1908 103.424 65.3375 103.621 64.366 103.621ZM64.366 101.987C65.2587 101.987 65.9808 101.711 66.5321 101.16C67.0835 100.608 67.3592 99.8796 67.3592 98.9737V94.1885C67.3592 93.2695 67.0835 92.5344 66.5321 91.983C65.9808 91.4185 65.2587 91.1362 64.366 91.1362C63.4733 91.1362 62.7512 91.4185 62.1999 91.983C61.6616 92.5344 61.3925 93.2695 61.3925 94.1885V98.9737C61.3925 99.8796 61.6616 100.608 62.1999 101.16C62.7512 101.711 63.4733 101.987 64.366 101.987ZM80.7161 89.6593C80.8474 89.6593 80.913 89.7249 80.913 89.8562V91.1165C80.913 91.2478 80.8474 91.3134 80.7161 91.3134H76.9352C76.8827 91.3134 76.8564 91.3397 76.8564 91.3922V103.247C76.8564 103.378 76.7908 103.444 76.6595 103.444H75.1629C75.0316 103.444 74.9659 103.378 74.9659 103.247V91.3922C74.9659 91.3397 74.9397 91.3134 74.8872 91.3134H71.2835C71.1522 91.3134 71.0866 91.2478 71.0866 91.1165V89.8562C71.0866 89.7249 71.1522 89.6593 71.2835 89.6593H80.7161ZM90.476 103.444C90.3579 103.444 90.2791 103.391 90.2397 103.286L89.5308 100.982C89.5177 100.943 89.4914 100.923 89.452 100.923H83.9185C83.8791 100.923 83.8529 100.943 83.8398 100.982L83.1308 103.286C83.0915 103.391 83.0127 103.444 82.8945 103.444H81.2995C81.1551 103.444 81.1025 103.372 81.1419 103.227L85.4545 89.8168C85.4939 89.7118 85.5727 89.6593 85.6908 89.6593H87.66C87.7782 89.6593 87.857 89.7118 87.8964 89.8168L92.2483 103.227L92.268 103.306C92.268 103.398 92.2089 103.444 92.0908 103.444H90.476ZM84.3321 99.3282C84.3189 99.3544 84.3189 99.3807 84.3321 99.4069C84.3583 99.4201 84.3846 99.4266 84.4108 99.4266H88.94C88.9663 99.4266 88.986 99.4201 88.9991 99.4069C89.0254 99.3807 89.0319 99.3544 89.0188 99.3282L86.7345 92.0224C86.7214 91.9961 86.7017 91.983 86.6754 91.983C86.6492 91.983 86.6295 91.9961 86.6164 92.0224L84.3321 99.3282ZM97.9949 103.601C96.984 103.601 96.1045 103.444 95.3562 103.129C94.621 102.814 94.0499 102.367 93.6429 101.79C93.2491 101.212 93.0522 100.536 93.0522 99.7614V99.1903C93.0522 99.059 93.1178 98.9934 93.2491 98.9934H94.6866C94.8179 98.9934 94.8835 99.059 94.8835 99.1903V99.6629C94.8835 100.332 95.1724 100.884 95.75 101.317C96.3276 101.75 97.1219 101.967 98.1328 101.967C99.0386 101.967 99.7213 101.777 100.181 101.396C100.64 101.015 100.87 100.516 100.87 99.8993C100.87 99.4923 100.752 99.1444 100.516 98.8556C100.279 98.5667 99.9313 98.3042 99.4718 98.0679C99.0255 97.8184 98.3691 97.5231 97.5026 97.1817C96.5443 96.8141 95.7828 96.4794 95.2183 96.1774C94.6669 95.8755 94.2074 95.4816 93.8399 94.9959C93.4723 94.497 93.2885 93.8734 93.2885 93.1251C93.2885 91.9961 93.6889 91.11 94.4897 90.4667C95.3036 89.8234 96.3998 89.5018 97.7783 89.5018C98.7498 89.5018 99.6031 89.6659 100.338 89.9941C101.073 90.3223 101.638 90.7818 102.032 91.3725C102.439 91.9633 102.642 92.646 102.642 93.4205V93.8144C102.642 93.9456 102.577 94.0113 102.445 94.0113H100.968C100.837 94.0113 100.772 93.9456 100.772 93.8144V93.519C100.772 92.8363 100.496 92.2718 99.9444 91.8254C99.4062 91.366 98.6579 91.1362 97.6995 91.1362C96.8856 91.1362 96.2554 91.3069 95.8091 91.6482C95.3627 91.9764 95.1395 92.4556 95.1395 93.0857C95.1395 93.519 95.2511 93.8734 95.4743 94.1491C95.6975 94.4248 96.0257 94.6743 96.4589 94.8974C96.9053 95.1075 97.5814 95.3832 98.4872 95.7245C99.4193 96.0921 100.174 96.4334 100.752 96.7485C101.329 97.0504 101.809 97.4574 102.189 97.9694C102.57 98.4683 102.76 99.0919 102.76 99.8402C102.76 100.995 102.334 101.914 101.48 102.597C100.64 103.267 99.4784 103.601 97.9949 103.601ZM118.417 91.0968C118.417 91.2281 118.352 91.2938 118.22 91.2938H111.23C111.177 91.2938 111.151 91.32 111.151 91.3725V95.6063C111.151 95.6589 111.177 95.6851 111.23 95.6851H116.035C116.166 95.6851 116.232 95.7508 116.232 95.882V97.1226C116.232 97.2539 116.166 97.3196 116.035 97.3196H111.23C111.177 97.3196 111.151 97.3458 111.151 97.3983V101.731C111.151 101.783 111.177 101.809 111.23 101.809H118.22C118.352 101.809 118.417 101.875 118.417 102.006V103.247C118.417 103.378 118.352 103.444 118.22 103.444H109.457C109.326 103.444 109.261 103.378 109.261 103.247V89.8562C109.261 89.7249 109.326 89.6593 109.457 89.6593H118.22C118.352 89.6593 118.417 89.7249 118.417 89.8562V91.0968ZM125.283 103.601C124.272 103.601 123.393 103.444 122.644 103.129C121.909 102.814 121.338 102.367 120.931 101.79C120.537 101.212 120.34 100.536 120.34 99.7614V99.1903C120.34 99.059 120.406 98.9934 120.537 98.9934H121.975C122.106 98.9934 122.172 99.059 122.172 99.1903V99.6629C122.172 100.332 122.461 100.884 123.038 101.317C123.616 101.75 124.41 101.967 125.421 101.967C126.327 101.967 127.01 101.777 127.469 101.396C127.929 101.015 128.158 100.516 128.158 99.8993C128.158 99.4923 128.04 99.1444 127.804 98.8556C127.568 98.5667 127.22 98.3042 126.76 98.0679C126.314 97.8184 125.657 97.5231 124.791 97.1817C123.833 96.8141 123.071 96.4794 122.507 96.1774C121.955 95.8755 121.496 95.4816 121.128 94.9959C120.761 94.497 120.577 93.8734 120.577 93.1251C120.577 91.9961 120.977 91.11 121.778 90.4667C122.592 89.8234 123.688 89.5018 125.067 89.5018C126.038 89.5018 126.891 89.6659 127.627 89.9941C128.362 90.3223 128.926 90.7818 129.32 91.3725C129.727 91.9633 129.931 92.646 129.931 93.4205V93.8144C129.931 93.9456 129.865 94.0113 129.734 94.0113H128.257C128.125 94.0113 128.06 93.9456 128.06 93.8144V93.519C128.06 92.8363 127.784 92.2718 127.233 91.8254C126.695 91.366 125.946 91.1362 124.988 91.1362C124.174 91.1362 123.544 91.3069 123.097 91.6482C122.651 91.9764 122.428 92.4556 122.428 93.0857C122.428 93.519 122.539 93.8734 122.763 94.1491C122.986 94.4248 123.314 94.6743 123.747 94.8974C124.194 95.1075 124.87 95.3832 125.776 95.7245C126.708 96.0921 127.463 96.4334 128.04 96.7485C128.618 97.0504 129.097 97.4574 129.478 97.9694C129.858 98.4683 130.049 99.0919 130.049 99.8402C130.049 100.995 129.622 101.914 128.769 102.597C127.929 103.267 126.767 103.601 125.283 103.601ZM137.037 103.621C136.092 103.621 135.252 103.437 134.517 103.07C133.795 102.689 133.23 102.157 132.823 101.475C132.429 100.779 132.232 99.9846 132.232 99.0919V93.9916C132.232 93.0989 132.429 92.3177 132.823 91.6482C133.23 90.9656 133.795 90.4404 134.517 90.0728C135.252 89.6921 136.092 89.5018 137.037 89.5018C137.983 89.5018 138.816 89.6856 139.538 90.0531C140.26 90.4076 140.818 90.913 141.212 91.5694C141.619 92.2259 141.823 92.9873 141.823 93.8537V93.8734C141.823 93.9391 141.803 93.9916 141.763 94.031C141.724 94.0704 141.678 94.09 141.626 94.09L140.129 94.1688C139.998 94.1688 139.932 94.1097 139.932 93.9916V93.9325C139.932 93.0923 139.67 92.4162 139.144 91.9042C138.619 91.3922 137.917 91.1362 137.037 91.1362C136.158 91.1362 135.449 91.3922 134.911 91.9042C134.385 92.4162 134.123 93.0923 134.123 93.9325V99.1706C134.123 100.011 134.385 100.687 134.911 101.199C135.449 101.711 136.158 101.967 137.037 101.967C137.917 101.967 138.619 101.711 139.144 101.199C139.67 100.687 139.932 100.011 139.932 99.1706V99.1313C139.932 99.0131 139.998 98.954 140.129 98.954L141.626 99.0328C141.757 99.0328 141.823 99.0984 141.823 99.2297C141.823 100.096 141.619 100.864 141.212 101.534C140.818 102.19 140.26 102.702 139.538 103.07C138.816 103.437 137.983 103.621 137.037 103.621ZM149.058 103.621C148.1 103.621 147.253 103.424 146.518 103.03C145.782 102.636 145.211 102.085 144.804 101.376C144.397 100.654 144.194 99.827 144.194 98.8949V94.2082C144.194 93.2761 144.397 92.4556 144.804 91.7467C145.211 91.0378 145.782 90.4864 146.518 90.0925C147.253 89.6987 148.1 89.5018 149.058 89.5018C150.029 89.5018 150.883 89.6987 151.618 90.0925C152.353 90.4864 152.924 91.0378 153.331 91.7467C153.738 92.4556 153.942 93.2761 153.942 94.2082V98.8949C153.942 99.827 153.738 100.654 153.331 101.376C152.924 102.085 152.353 102.636 151.618 103.03C150.883 103.424 150.029 103.621 149.058 103.621ZM149.058 101.987C149.951 101.987 150.673 101.711 151.224 101.16C151.775 100.608 152.051 99.8796 152.051 98.9737V94.1885C152.051 93.2695 151.775 92.5344 151.224 91.983C150.673 91.4185 149.951 91.1362 149.058 91.1362C148.165 91.1362 147.443 91.4185 146.892 91.983C146.353 92.5344 146.084 93.2695 146.084 94.1885V98.9737C146.084 99.8796 146.353 100.608 146.892 101.16C147.443 101.711 148.165 101.987 149.058 101.987ZM164.931 89.8562C164.931 89.7249 164.997 89.6593 165.128 89.6593H166.625C166.756 89.6593 166.822 89.7249 166.822 89.8562V103.247C166.822 103.378 166.756 103.444 166.625 103.444H165.187C165.095 103.444 165.017 103.398 164.951 103.306L158.787 93.2433C158.774 93.2039 158.754 93.1908 158.728 93.2039C158.702 93.2039 158.689 93.2236 158.689 93.263L158.708 103.247C158.708 103.378 158.643 103.444 158.512 103.444H157.015C156.884 103.444 156.818 103.378 156.818 103.247V89.8562C156.818 89.7249 156.884 89.6593 157.015 89.6593H158.472C158.564 89.6593 158.643 89.7053 158.708 89.7971L164.852 99.8599C164.866 99.8993 164.885 99.9189 164.911 99.9189C164.938 99.9058 164.951 99.8796 164.951 99.8402L164.931 89.8562ZM170.053 103.444C169.922 103.444 169.856 103.378 169.856 103.247V89.8562C169.856 89.7249 169.922 89.6593 170.053 89.6593H174.819C176.184 89.6593 177.274 90.0203 178.088 90.7424C178.902 91.4513 179.309 92.4031 179.309 93.5977V99.5054C179.309 100.7 178.902 101.658 178.088 102.38C177.274 103.089 176.184 103.444 174.819 103.444H170.053ZM171.747 101.731C171.747 101.783 171.773 101.809 171.826 101.809H174.898C175.659 101.809 176.263 101.58 176.709 101.12C177.169 100.648 177.405 100.017 177.418 99.2297V93.8734C177.418 93.0857 177.188 92.4622 176.729 92.0027C176.283 91.5301 175.672 91.2938 174.898 91.2938H171.826C171.773 91.2938 171.747 91.32 171.747 91.3725V101.731ZM182.226 103.444C182.095 103.444 182.029 103.378 182.029 103.247V89.8562C182.029 89.7249 182.095 89.6593 182.226 89.6593H183.723C183.854 89.6593 183.92 89.7249 183.92 89.8562V103.247C183.92 103.378 183.854 103.444 183.723 103.444H182.226ZM187.342 103.444C187.21 103.444 187.145 103.378 187.145 103.247V89.8562C187.145 89.7249 187.21 89.6593 187.342 89.6593H192.107C193.473 89.6593 194.562 90.0203 195.376 90.7424C196.19 91.4513 196.597 92.4031 196.597 93.5977V99.5054C196.597 100.7 196.19 101.658 195.376 102.38C194.562 103.089 193.473 103.444 192.107 103.444H187.342ZM189.035 101.731C189.035 101.783 189.061 101.809 189.114 101.809H192.186C192.947 101.809 193.551 101.58 193.998 101.12C194.457 100.648 194.693 100.017 194.707 99.2297V93.8734C194.707 93.0857 194.477 92.4622 194.017 92.0027C193.571 91.5301 192.961 91.2938 192.186 91.2938H189.114C189.061 91.2938 189.035 91.32 189.035 91.3725V101.731ZM207.11 103.444C206.992 103.444 206.913 103.391 206.874 103.286L206.165 100.982C206.152 100.943 206.125 100.923 206.086 100.923H200.553C200.513 100.923 200.487 100.943 200.474 100.982L199.765 103.286C199.725 103.391 199.647 103.444 199.529 103.444H197.933C197.789 103.444 197.737 103.372 197.776 103.227L202.089 89.8168C202.128 89.7118 202.207 89.6593 202.325 89.6593H204.294C204.412 89.6593 204.491 89.7118 204.53 89.8168L208.882 103.227L208.902 103.306C208.902 103.398 208.843 103.444 208.725 103.444H207.11ZM200.966 99.3282C200.953 99.3544 200.953 99.3807 200.966 99.4069C200.992 99.4201 201.019 99.4266 201.045 99.4266H205.574C205.6 99.4266 205.62 99.4201 205.633 99.4069C205.659 99.3807 205.666 99.3544 205.653 99.3282L203.369 92.0224C203.355 91.9961 203.336 91.983 203.309 91.983C203.283 91.983 203.264 91.9961 203.25 92.0224L200.966 99.3282ZM214.629 103.601C213.618 103.601 212.738 103.444 211.99 103.129C211.255 102.814 210.684 102.367 210.277 101.79C209.883 101.212 209.686 100.536 209.686 99.7614V99.1903C209.686 99.059 209.752 98.9934 209.883 98.9934H211.321C211.452 98.9934 211.518 99.059 211.518 99.1903V99.6629C211.518 100.332 211.806 100.884 212.384 101.317C212.962 101.75 213.756 101.967 214.767 101.967C215.673 101.967 216.355 101.777 216.815 101.396C217.274 101.015 217.504 100.516 217.504 99.8993C217.504 99.4923 217.386 99.1444 217.15 98.8556C216.913 98.5667 216.565 98.3042 216.106 98.0679C215.659 97.8184 215.003 97.5231 214.137 97.1817C213.178 96.8141 212.417 96.4794 211.852 96.1774C211.301 95.8755 210.841 95.4816 210.474 94.9959C210.106 94.497 209.922 93.8734 209.922 93.1251C209.922 91.9961 210.323 91.11 211.124 90.4667C211.938 89.8234 213.034 89.5018 214.412 89.5018C215.384 89.5018 216.237 89.6659 216.972 89.9941C217.707 90.3223 218.272 90.7818 218.666 91.3725C219.073 91.9633 219.276 92.646 219.276 93.4205V93.8144C219.276 93.9456 219.211 94.0113 219.079 94.0113H217.602C217.471 94.0113 217.406 93.9456 217.406 93.8144V93.519C217.406 92.8363 217.13 92.2718 216.578 91.8254C216.04 91.366 215.292 91.1362 214.334 91.1362C213.52 91.1362 212.889 91.3069 212.443 91.6482C211.997 91.9764 211.774 92.4556 211.774 93.0857C211.774 93.519 211.885 93.8734 212.108 94.1491C212.332 94.4248 212.66 94.6743 213.093 94.8974C213.539 95.1075 214.215 95.3832 215.121 95.7245C216.053 96.0921 216.808 96.4334 217.386 96.7485C217.963 97.0504 218.443 97.4574 218.823 97.9694C219.204 98.4683 219.394 99.0919 219.394 99.8402C219.394 100.995 218.968 101.914 218.114 102.597C217.274 103.267 216.112 103.601 214.629 103.601Z" fill="white"/>
<path fill-rule="evenodd" clip-rule="evenodd" d="M10.4824 3.49023C9.45034 3.49023 7.72566 3.88663 6.1027 4.32789C4.44234 4.77664 2.76852 5.30765 1.78427 5.62925C1.37276 5.76515 1.00793 6.01437 0.731689 6.34829C0.455451 6.68221 0.27901 7.08729 0.222637 7.51697C-0.66887 14.2138 1.39985 19.1769 3.90983 22.4602C4.97461 23.8644 6.24368 25.1012 7.6748 26.1294C8.25219 26.5378 8.78769 26.8504 9.24242 27.0643C9.66125 27.2618 10.1115 27.4233 10.4824 27.4233C10.8534 27.4233 11.3022 27.2618 11.7225 27.0643C12.2712 26.7989 12.7958 26.4861 13.2901 26.1294C14.7212 25.1012 15.9903 23.8644 17.0551 22.4602C19.5651 19.1769 21.6338 14.2138 20.7423 7.51697C20.6862 7.08702 20.5098 6.68163 20.2336 6.34742C19.9573 6.01322 19.5923 5.76377 19.1806 5.62776C17.7517 5.15958 16.3119 4.72567 14.8622 4.3264C13.2392 3.88812 11.5146 3.49023 10.4824 3.49023ZM13.6925 11.1877C13.8329 11.0473 14.0234 10.9684 14.222 10.9684C14.4206 10.9684 14.6111 11.0473 14.7515 11.1877C14.892 11.3281 14.9708 11.5186 14.9708 11.7172C14.9708 11.9158 14.892 12.1063 14.7515 12.2468L10.2641 16.7342C10.1946 16.8039 10.1121 16.8591 10.0212 16.8968C9.93033 16.9345 9.83292 16.9539 9.73454 16.9539C9.63616 16.9539 9.53876 16.9345 9.44789 16.8968C9.35703 16.8591 9.2745 16.8039 9.20502 16.7342L6.96129 14.4905C6.89176 14.4209 6.8366 14.3384 6.79896 14.2475C6.76133 14.1567 6.74196 14.0593 6.74196 13.961C6.74196 13.8626 6.76133 13.7652 6.79896 13.6744C6.8366 13.5835 6.89176 13.501 6.96129 13.4314C7.03083 13.3619 7.11339 13.3067 7.20424 13.2691C7.2951 13.2315 7.39247 13.2121 7.49081 13.2121C7.58916 13.2121 7.68653 13.2315 7.77739 13.2691C7.86824 13.3067 7.9508 13.3619 8.02033 13.4314L9.73454 15.1471L13.6925 11.1877Z" fill="#84FF82"/>
<path d="M3.16119 36.2166C3.23118 36.1817 3.307 36.1642 3.38865 36.1642H4.3335C4.45014 36.1642 4.50847 36.2225 4.50847 36.3391V48.2371C4.50847 48.3538 4.45014 48.4121 4.3335 48.4121H3.44115C3.3245 48.4121 3.26618 48.3538 3.26618 48.2371V37.5814C3.26618 37.5581 3.25451 37.5406 3.23118 37.5289C3.21952 37.5173 3.20202 37.5173 3.17869 37.5289L1.324 38.2813L1.25401 38.2988C1.18402 38.2988 1.13736 38.2521 1.11403 38.1588L1.02655 37.4939V37.4589C1.02655 37.4006 1.06738 37.3423 1.14903 37.284L3.16119 36.2166ZM11.0455 48.5871C9.92573 48.5871 9.03338 48.2663 8.36849 47.6247C7.7036 46.9832 7.37115 46.1258 7.37115 45.0527V39.5236C7.37115 38.4504 7.7036 37.5989 8.36849 36.969C9.03338 36.3275 9.92573 36.0067 11.0455 36.0067C12.177 36.0067 13.081 36.3275 13.7576 36.969C14.4341 37.6106 14.7724 38.4621 14.7724 39.5236V45.0527C14.7724 46.1258 14.4341 46.9832 13.7576 47.6247C13.081 48.2663 12.177 48.5871 11.0455 48.5871ZM11.0455 47.5023C11.7921 47.5023 12.3928 47.2865 12.8477 46.8549C13.3027 46.4233 13.5301 45.8459 13.5301 45.1227V39.4711C13.5301 38.7596 13.3027 38.188 12.8477 37.7564C12.4045 37.3248 11.8037 37.109 11.0455 37.109C10.3107 37.109 9.72159 37.3248 9.27834 37.7564C8.83508 38.188 8.61345 38.7596 8.61345 39.4711V45.1227C8.61345 45.8459 8.83508 46.4233 9.27834 46.8549C9.72159 47.2865 10.3107 47.5023 11.0455 47.5023ZM20.9389 48.5871C19.8191 48.5871 18.9267 48.2663 18.2619 47.6247C17.597 46.9832 17.2645 46.1258 17.2645 45.0527V39.5236C17.2645 38.4504 17.597 37.5989 18.2619 36.969C18.9267 36.3275 19.8191 36.0067 20.9389 36.0067C22.0704 36.0067 22.9744 36.3275 23.651 36.969C24.3275 37.6106 24.6658 38.4621 24.6658 39.5236V45.0527C24.6658 46.1258 24.3275 46.9832 23.651 47.6247C22.9744 48.2663 22.0704 48.5871 20.9389 48.5871ZM20.9389 47.5023C21.6854 47.5023 22.2862 47.2865 22.7411 46.8549C23.196 46.4233 23.4235 45.8459 23.4235 45.1227V39.4711C23.4235 38.7596 23.196 38.188 22.7411 37.7564C22.2978 37.3248 21.6971 37.109 20.9389 37.109C20.204 37.109 19.615 37.3248 19.1717 37.7564C18.7284 38.188 18.5068 38.7596 18.5068 39.4711V45.1227C18.5068 45.8459 18.7284 46.4233 19.1717 46.8549C19.615 47.2865 20.204 47.5023 20.9389 47.5023ZM30.0799 40.9759C29.625 40.9759 29.205 40.865 28.8201 40.6434C28.4352 40.4218 28.1261 40.1243 27.8928 39.7511C27.6711 39.3661 27.5603 38.9462 27.5603 38.4913C27.5603 38.0363 27.6711 37.6222 27.8928 37.249C28.1261 36.864 28.4352 36.5608 28.8201 36.3391C29.205 36.1175 29.625 36.0067 30.0799 36.0067C30.5348 36.0067 30.9548 36.1175 31.3397 36.3391C31.7246 36.5608 32.0279 36.864 32.2495 37.249C32.4712 37.6222 32.582 38.0363 32.582 38.4913C32.582 38.9462 32.4712 39.3661 32.2495 39.7511C32.0279 40.1243 31.7246 40.4218 31.3397 40.6434C30.9548 40.865 30.5348 40.9759 30.0799 40.9759ZM29.6775 48.4121C29.6075 48.4121 29.5608 48.3946 29.5375 48.3596C29.5142 48.313 29.52 48.2605 29.555 48.2021L36.1864 36.2866C36.2447 36.205 36.3147 36.1642 36.3963 36.1642H36.9563C37.0262 36.1642 37.0729 36.1875 37.0962 36.2341C37.1196 36.2691 37.1137 36.3158 37.0787 36.3741L30.4648 48.2896C30.4298 48.3713 30.3599 48.4121 30.2549 48.4121H29.6775ZM30.0799 40.171C30.5465 40.171 30.9373 40.0077 31.2522 39.6811C31.5788 39.3545 31.7421 38.9579 31.7421 38.4913C31.7421 38.0247 31.5788 37.6281 31.2522 37.3015C30.9373 36.9749 30.5465 36.8115 30.0799 36.8115C29.6133 36.8115 29.2167 36.9749 28.8901 37.3015C28.5635 37.6164 28.4002 38.013 28.4002 38.4913C28.4002 38.9579 28.5635 39.3545 28.8901 39.6811C29.2167 40.0077 29.6133 40.171 30.0799 40.171ZM36.6588 48.5696C36.2039 48.5696 35.7839 48.4588 35.399 48.2371C35.0141 48.0155 34.705 47.7122 34.4717 47.3273C34.25 46.9424 34.1392 46.5224 34.1392 46.0675C34.1392 45.6242 34.25 45.216 34.4717 44.8427C34.705 44.4578 35.0141 44.1545 35.399 43.9329C35.7839 43.7112 36.2039 43.6004 36.6588 43.6004C37.1021 43.6004 37.5162 43.7112 37.9011 43.9329C38.286 44.1545 38.5893 44.4578 38.8109 44.8427C39.0326 45.216 39.1434 45.6242 39.1434 46.0675C39.1434 46.5224 39.0326 46.9424 38.8109 47.3273C38.5893 47.7122 38.286 48.0155 37.9011 48.2371C37.5278 48.4588 37.1137 48.5696 36.6588 48.5696ZM36.6588 47.7647C37.1254 47.7647 37.5162 47.6014 37.8311 47.2748C38.1577 46.9482 38.321 46.5458 38.321 46.0675C38.321 45.6009 38.1577 45.2101 37.8311 44.8952C37.5045 44.5686 37.1137 44.4053 36.6588 44.4053C36.1805 44.4053 35.7781 44.5686 35.4515 44.8952C35.1249 45.2101 34.9616 45.6009 34.9616 46.0675C34.9616 46.5458 35.1249 46.9482 35.4515 47.2748C35.7781 47.6014 36.1805 47.7647 36.6588 47.7647ZM49.4291 48.5521C48.111 48.5521 47.067 48.2546 46.2971 47.6597C45.5389 47.0648 45.1598 46.2716 45.1598 45.2801V44.7377C45.1598 44.6211 45.2181 44.5628 45.3348 44.5628H46.1921C46.3088 44.5628 46.3671 44.6211 46.3671 44.7377V45.2101C46.3671 45.8867 46.647 46.4349 47.2069 46.8549C47.7669 47.2631 48.5426 47.4673 49.5341 47.4673C50.4322 47.4673 51.1146 47.2806 51.5812 46.9074C52.0478 46.5224 52.2811 46.015 52.2811 45.3851C52.2811 44.9768 52.1703 44.6269 51.9487 44.3353C51.7387 44.0437 51.4062 43.7696 50.9513 43.5129C50.5081 43.2563 49.8782 42.9589 49.0616 42.6206C48.1868 42.2706 47.5044 41.9674 47.0145 41.7107C46.5362 41.4424 46.1455 41.1042 45.8422 40.6959C45.5506 40.276 45.4047 39.7511 45.4047 39.1212C45.4047 38.1413 45.743 37.3831 46.4196 36.8465C47.1078 36.2983 48.0468 36.0242 49.2366 36.0242C50.5314 36.0242 51.5521 36.3275 52.2986 36.934C53.0451 37.5406 53.4184 38.3455 53.4184 39.3486V39.7336C53.4184 39.8502 53.3601 39.9085 53.2434 39.9085H52.3686C52.2519 39.9085 52.1936 39.8502 52.1936 39.7336V39.4186C52.1936 38.7421 51.9253 38.188 51.3887 37.7564C50.8638 37.3248 50.129 37.109 49.1841 37.109C48.3559 37.109 47.7202 37.2781 47.2769 37.6164C46.8337 37.9547 46.612 38.4446 46.612 39.0862C46.612 39.5061 46.717 39.856 46.927 40.136C47.1486 40.4043 47.4577 40.6434 47.8543 40.8534C48.2626 41.0517 48.8867 41.3141 49.7265 41.6407C50.578 41.9907 51.2604 42.3173 51.7737 42.6206C52.2986 42.9239 52.7185 43.2971 53.0335 43.7404C53.3601 44.172 53.5234 44.7027 53.5234 45.3326C53.5234 46.3125 53.1618 47.094 52.4386 47.6772C51.7154 48.2605 50.7122 48.5521 49.4291 48.5521ZM62.6566 42.4981C62.7032 42.8247 62.7266 43.233 62.7266 43.7229V44.2828C62.7266 44.3994 62.6683 44.4578 62.5516 44.4578H56.9001C56.8534 44.4578 56.8301 44.4811 56.8301 44.5278C56.8534 45.1693 56.8884 45.5834 56.935 45.7701C57.0634 46.295 57.3375 46.7091 57.7574 47.0123C58.1773 47.3156 58.7139 47.4673 59.3671 47.4673C59.8571 47.4673 60.2887 47.3565 60.6619 47.1348C61.0352 46.9132 61.3268 46.5982 61.5368 46.19C61.6068 46.085 61.6884 46.0617 61.7817 46.12L62.4641 46.5224C62.5574 46.5807 62.5808 46.6624 62.5341 46.7674C62.2425 47.3273 61.8051 47.7705 61.2218 48.0972C60.6386 48.4121 59.9679 48.5696 59.2097 48.5696C58.3815 48.5579 57.6874 48.3596 57.1275 47.9747C56.5676 47.5897 56.1652 47.0532 55.9202 46.365C55.7102 45.805 55.6053 45.0002 55.6053 43.9504C55.6053 43.4604 55.6111 43.0638 55.6228 42.7606C55.6461 42.4456 55.6928 42.1657 55.7627 41.9207C55.961 41.1625 56.3576 40.5559 56.9525 40.101C57.5591 39.6461 58.2882 39.4186 59.1397 39.4186C60.2012 39.4186 61.0177 39.6869 61.5893 40.2235C62.1608 40.7601 62.5166 41.5183 62.6566 42.4981ZM59.1397 40.5034C58.5681 40.5034 58.0899 40.6551 57.7049 40.9584C57.3316 41.25 57.0867 41.6466 56.97 42.1482C56.9001 42.3931 56.8534 42.7897 56.8301 43.338C56.8301 43.3846 56.8534 43.4079 56.9001 43.4079H61.4318C61.4785 43.4079 61.5018 43.3846 61.5018 43.338C61.4785 42.813 61.4435 42.4398 61.3968 42.2181C61.2685 41.6932 61.006 41.2791 60.6094 40.9759C60.2245 40.6609 59.7346 40.5034 59.1397 40.5034ZM70.6563 39.7336C70.6563 39.6169 70.7146 39.5586 70.8313 39.5586H71.7236C71.8403 39.5586 71.8986 39.6169 71.8986 39.7336V48.1147C71.8986 49.4211 71.5195 50.3776 70.7613 50.9842C70.0148 51.5907 68.9824 51.894 67.6643 51.894C67.396 51.894 67.1919 51.8882 67.0519 51.8765C66.9353 51.8649 66.8769 51.8007 66.8769 51.6841L66.9119 50.8792C66.9119 50.8209 66.9294 50.7742 66.9644 50.7392C66.9994 50.7159 67.0402 50.7101 67.0869 50.7217L67.5593 50.7392C68.6441 50.7392 69.4315 50.5234 69.9214 50.0918C70.4114 49.6719 70.6563 49.0012 70.6563 48.0797V47.4323C70.6563 47.4089 70.6446 47.3973 70.6213 47.3973C70.6097 47.3856 70.5922 47.3914 70.5688 47.4148C70.0322 48.1147 69.2682 48.4646 68.2767 48.4646C67.5185 48.4646 66.8419 48.2605 66.247 47.8522C65.6638 47.4439 65.273 46.8665 65.0747 46.12C64.9348 45.6417 64.8648 44.9302 64.8648 43.9853C64.8648 43.4721 64.8764 43.0405 64.8998 42.6906C64.9348 42.3406 64.9989 42.0257 65.0922 41.7457C65.3022 41.0458 65.6813 40.4859 66.2295 40.066C66.7778 39.6344 67.4368 39.4186 68.2067 39.4186C69.2449 39.4186 70.0322 39.7627 70.5688 40.4509C70.5922 40.4743 70.6097 40.4801 70.6213 40.4684C70.6446 40.4568 70.6563 40.4393 70.6563 40.4159V39.7336ZM70.5688 45.7351C70.6038 45.5601 70.6271 45.3443 70.6388 45.0877C70.6505 44.831 70.6563 44.4578 70.6563 43.9679C70.6563 43.373 70.6505 42.9764 70.6388 42.778C70.6271 42.5681 70.598 42.3756 70.5513 42.2006C70.458 41.7107 70.2247 41.3083 69.8514 40.9933C69.4898 40.6667 69.0291 40.5034 68.4692 40.5034C67.9209 40.5034 67.4543 40.6609 67.0694 40.9759C66.6961 41.2908 66.4337 41.6991 66.282 42.2006C66.1654 42.5739 66.1071 43.1572 66.1071 43.9504C66.1071 44.8019 66.1654 45.3909 66.282 45.7176C66.3987 46.2075 66.6495 46.6157 67.0344 46.9424C67.431 47.2573 67.9093 47.4148 68.4692 47.4148C69.0407 47.4148 69.5073 47.2573 69.8689 46.9424C70.2422 46.6274 70.4755 46.225 70.5688 45.7351ZM79.915 39.7336C79.915 39.6169 79.9733 39.5586 80.09 39.5586H80.9823C81.099 39.5586 81.1573 39.6169 81.1573 39.7336V48.2371C81.1573 48.3538 81.099 48.4121 80.9823 48.4121H80.09C79.9733 48.4121 79.915 48.3538 79.915 48.2371V47.4848C79.915 47.4614 79.9033 47.4439 79.88 47.4323C79.8567 47.4206 79.8392 47.4264 79.8275 47.4498C79.3376 48.173 78.5619 48.5346 77.5004 48.5346C76.9405 48.5346 76.4214 48.4238 75.9432 48.2021C75.4766 47.9689 75.1033 47.6364 74.8233 47.2048C74.5551 46.7732 74.4209 46.2541 74.4209 45.6476V39.7336C74.4209 39.6169 74.4792 39.5586 74.5959 39.5586H75.4882C75.6049 39.5586 75.6632 39.6169 75.6632 39.7336V45.2801C75.6632 45.945 75.8498 46.4758 76.2231 46.8724C76.5964 47.2573 77.1038 47.4498 77.7454 47.4498C78.4102 47.4498 78.9352 47.2515 79.3201 46.8549C79.7167 46.4583 79.915 45.9334 79.915 45.2801V39.7336ZM87.5111 39.4711C87.896 39.4711 88.2284 39.5469 88.5084 39.6986C88.6017 39.7452 88.6367 39.821 88.6134 39.926L88.4209 40.7834C88.3859 40.9 88.3101 40.935 88.1934 40.8884C87.9951 40.8067 87.7677 40.7659 87.5111 40.7659L87.2836 40.7834C86.677 40.8067 86.1754 41.0342 85.7788 41.4658C85.3822 41.8857 85.1839 42.4223 85.1839 43.0755V48.2371C85.1839 48.3538 85.1256 48.4121 85.009 48.4121H84.1166C84 48.4121 83.9417 48.3538 83.9417 48.2371V39.7336C83.9417 39.6169 84 39.5586 84.1166 39.5586H85.009C85.1256 39.5586 85.1839 39.6169 85.1839 39.7336V40.8009C85.1839 40.8359 85.1898 40.8592 85.2014 40.8709C85.2248 40.8709 85.2423 40.8592 85.2539 40.8359C85.4989 40.4043 85.808 40.0718 86.1813 39.8385C86.5662 39.5936 87.0095 39.4711 87.5111 39.4711ZM93.6066 48.5521C92.7667 48.5521 92.0435 48.3363 91.437 47.9047C90.8304 47.4731 90.4105 46.8782 90.1772 46.12C90.0139 45.5834 89.9322 44.866 89.9322 43.9679C89.9322 43.0697 90.0139 42.3581 90.1772 41.8332C90.3988 41.0867 90.8129 40.4976 91.4195 40.066C92.026 39.6344 92.7609 39.4186 93.6241 39.4186C94.4523 39.4186 95.1638 39.6344 95.7587 40.066C96.3653 40.4976 96.7794 41.0808 97.001 41.8157C97.1643 42.3173 97.246 43.0347 97.246 43.9679C97.246 44.9127 97.1643 45.6301 97.001 46.12C96.7794 46.8782 96.3653 47.4731 95.7587 47.9047C95.1638 48.3363 94.4465 48.5521 93.6066 48.5521ZM93.6066 47.4673C94.1665 47.4673 94.6448 47.3156 95.0414 47.0123C95.438 46.6974 95.7062 46.2775 95.8462 45.7526C95.9512 45.3326 96.0037 44.7436 96.0037 43.9853C96.0037 43.2155 95.957 42.6264 95.8637 42.2181C95.7237 41.6932 95.4496 41.2791 95.0414 40.9759C94.6448 40.6609 94.1607 40.5034 93.5891 40.5034C93.0175 40.5034 92.5334 40.6609 92.1368 40.9759C91.7402 41.2791 91.472 41.6932 91.332 42.2181C91.2387 42.6264 91.192 43.2155 91.192 43.9853C91.192 44.7552 91.2387 45.3443 91.332 45.7526C91.4603 46.2775 91.7227 46.6974 92.1193 47.0123C92.5276 47.3156 93.0234 47.4673 93.6066 47.4673ZM99.5404 49.7944C99.4821 49.7944 99.4355 49.7769 99.4005 49.7419C99.3771 49.7069 99.3713 49.6602 99.383 49.6019L100.153 45.8575C100.176 45.7526 100.24 45.7001 100.345 45.7001H101.115C101.173 45.7001 101.214 45.7176 101.238 45.7526C101.273 45.7875 101.284 45.8342 101.273 45.8925L100.293 49.6369C100.269 49.7419 100.205 49.7944 100.1 49.7944H99.5404ZM111.506 48.5521C110.188 48.5521 109.144 48.2546 108.374 47.6597C107.616 47.0648 107.237 46.2716 107.237 45.2801V44.7377C107.237 44.6211 107.295 44.5628 107.412 44.5628H108.269C108.386 44.5628 108.444 44.6211 108.444 44.7377V45.2101C108.444 45.8867 108.724 46.4349 109.284 46.8549C109.844 47.2631 110.62 47.4673 111.611 47.4673C112.509 47.4673 113.192 47.2806 113.658 46.9074C114.125 46.5224 114.358 46.015 114.358 45.3851C114.358 44.9768 114.247 44.6269 114.026 44.3353C113.816 44.0437 113.483 43.7696 113.028 43.5129C112.585 43.2563 111.955 42.9589 111.139 42.6206C110.264 42.2706 109.581 41.9674 109.092 41.7107C108.613 41.4424 108.222 41.1042 107.919 40.6959C107.628 40.276 107.482 39.7511 107.482 39.1212C107.482 38.1413 107.82 37.3831 108.497 36.8465C109.185 36.2983 110.124 36.0242 111.314 36.0242C112.608 36.0242 113.629 36.3275 114.376 36.934C115.122 37.5406 115.495 38.3455 115.495 39.3486V39.7336C115.495 39.8502 115.437 39.9085 115.32 39.9085H114.446C114.329 39.9085 114.271 39.8502 114.271 39.7336V39.4186C114.271 38.7421 114.002 38.188 113.466 37.7564C112.941 37.3248 112.206 37.109 111.261 37.109C110.433 37.109 109.797 37.2781 109.354 37.6164C108.911 37.9547 108.689 38.4446 108.689 39.0862C108.689 39.5061 108.794 39.856 109.004 40.136C109.226 40.4043 109.535 40.6434 109.931 40.8534C110.34 41.0517 110.964 41.3141 111.804 41.6407C112.655 41.9907 113.337 42.3173 113.851 42.6206C114.376 42.9239 114.796 43.2971 115.111 43.7404C115.437 44.172 115.6 44.7027 115.6 45.3326C115.6 46.3125 115.239 47.094 114.516 47.6772C113.792 48.2605 112.789 48.5521 111.506 48.5521ZM121.322 48.5521C120.482 48.5521 119.759 48.3363 119.152 47.9047C118.545 47.4731 118.126 46.8782 117.892 46.12C117.729 45.5834 117.647 44.866 117.647 43.9679C117.647 43.0697 117.729 42.3581 117.892 41.8332C118.114 41.0867 118.528 40.4976 119.135 40.066C119.741 39.6344 120.476 39.4186 121.339 39.4186C122.167 39.4186 122.879 39.6344 123.474 40.066C124.08 40.4976 124.494 41.0808 124.716 41.8157C124.879 42.3173 124.961 43.0347 124.961 43.9679C124.961 44.9127 124.879 45.6301 124.716 46.12C124.494 46.8782 124.08 47.4731 123.474 47.9047C122.879 48.3363 122.162 48.5521 121.322 48.5521ZM121.322 47.4673C121.882 47.4673 122.36 47.3156 122.756 47.0123C123.153 46.6974 123.421 46.2775 123.561 45.7526C123.666 45.3326 123.719 44.7436 123.719 43.9853C123.719 43.2155 123.672 42.6264 123.579 42.2181C123.439 41.6932 123.165 41.2791 122.756 40.9759C122.36 40.6609 121.876 40.5034 121.304 40.5034C120.733 40.5034 120.249 40.6609 119.852 40.9759C119.455 41.2791 119.187 41.6932 119.047 42.2181C118.954 42.6264 118.907 43.2155 118.907 43.9853C118.907 44.7552 118.954 45.3443 119.047 45.7526C119.175 46.2775 119.438 46.6974 119.834 47.0123C120.243 47.3156 120.738 47.4673 121.322 47.4673ZM134.356 41.7632C134.531 42.3231 134.618 43.0638 134.618 43.9853C134.618 44.9185 134.542 45.6417 134.391 46.155C134.181 46.9015 133.796 47.4906 133.236 47.9222C132.688 48.3421 131.994 48.5521 131.154 48.5521C130.699 48.5521 130.279 48.4646 129.894 48.2896C129.509 48.103 129.188 47.8405 128.932 47.5023C128.908 47.4789 128.885 47.4731 128.862 47.4848C128.85 47.4848 128.844 47.4964 128.844 47.5198V51.6316C128.844 51.7482 128.786 51.8065 128.669 51.8065H127.777C127.66 51.8065 127.602 51.7482 127.602 51.6316V39.7336C127.602 39.6169 127.66 39.5586 127.777 39.5586H128.669C128.786 39.5586 128.844 39.6169 128.844 39.7336V40.4684C128.844 40.4918 128.85 40.5093 128.862 40.5209C128.885 40.5209 128.908 40.5093 128.932 40.4859C129.188 40.1477 129.503 39.8852 129.876 39.6986C130.261 39.5119 130.687 39.4186 131.154 39.4186C131.97 39.4186 132.653 39.6286 133.201 40.0485C133.761 40.4684 134.146 41.04 134.356 41.7632ZM132.973 46.19C133.102 45.9334 133.195 45.6476 133.253 45.3326C133.323 45.006 133.358 44.5569 133.358 43.9853C133.358 43.4371 133.335 43.0113 133.288 42.7081C133.242 42.3931 133.16 42.1132 133.043 41.8682C132.903 41.4483 132.653 41.1158 132.291 40.8709C131.941 40.6259 131.521 40.5034 131.031 40.5034C130.565 40.5034 130.174 40.6259 129.859 40.8709C129.544 41.1158 129.311 41.4424 129.159 41.8507C129.054 42.084 128.978 42.3581 128.932 42.6731C128.885 42.988 128.862 43.4254 128.862 43.9853C128.862 44.5453 128.885 44.9885 128.932 45.3151C128.978 45.6301 129.06 45.91 129.177 46.155C129.316 46.5516 129.544 46.8724 129.859 47.1173C130.186 47.3506 130.57 47.4673 131.014 47.4673C131.48 47.4673 131.883 47.3506 132.221 47.1173C132.571 46.884 132.822 46.5749 132.973 46.19ZM140.391 48.5521C139.551 48.5521 138.828 48.3363 138.221 47.9047C137.615 47.4731 137.195 46.8782 136.961 46.12C136.798 45.5834 136.716 44.866 136.716 43.9679C136.716 43.0697 136.798 42.3581 136.961 41.8332C137.183 41.0867 137.597 40.4976 138.204 40.066C138.81 39.6344 139.545 39.4186 140.408 39.4186C141.236 39.4186 141.948 39.6344 142.543 40.066C143.149 40.4976 143.564 41.0808 143.785 41.8157C143.949 42.3173 144.03 43.0347 144.03 43.9679C144.03 44.9127 143.949 45.6301 143.785 46.12C143.564 46.8782 143.149 47.4731 142.543 47.9047C141.948 48.3363 141.231 48.5521 140.391 48.5521ZM140.391 47.4673C140.951 47.4673 141.429 47.3156 141.826 47.0123C142.222 46.6974 142.49 46.2775 142.63 45.7526C142.735 45.3326 142.788 44.7436 142.788 43.9853C142.788 43.2155 142.741 42.6264 142.648 42.2181C142.508 41.6932 142.234 41.2791 141.826 40.9759C141.429 40.6609 140.945 40.5034 140.373 40.5034C139.802 40.5034 139.318 40.6609 138.921 40.9759C138.524 41.2791 138.256 41.6932 138.116 42.2181C138.023 42.6264 137.976 43.2155 137.976 43.9853C137.976 44.7552 138.023 45.3443 138.116 45.7526C138.244 46.2775 138.507 46.6974 138.904 47.0123C139.312 47.3156 139.808 47.4673 140.391 47.4673ZM150.118 39.4711C150.503 39.4711 150.835 39.5469 151.115 39.6986C151.208 39.7452 151.243 39.821 151.22 39.926L151.028 40.7834C150.993 40.9 150.917 40.935 150.8 40.8884C150.602 40.8067 150.374 40.7659 150.118 40.7659L149.89 40.7834C149.284 40.8067 148.782 41.0342 148.386 41.4658C147.989 41.8857 147.791 42.4223 147.791 43.0755V48.2371C147.791 48.3538 147.732 48.4121 147.616 48.4121H146.723C146.607 48.4121 146.548 48.3538 146.548 48.2371V39.7336C146.548 39.6169 146.607 39.5586 146.723 39.5586H147.616C147.732 39.5586 147.791 39.6169 147.791 39.7336V40.8009C147.791 40.8359 147.797 40.8592 147.808 40.8709C147.832 40.8709 147.849 40.8592 147.861 40.8359C148.106 40.4043 148.415 40.0718 148.788 39.8385C149.173 39.5936 149.616 39.4711 150.118 39.4711ZM157.133 40.4159C157.133 40.5326 157.075 40.5909 156.958 40.5909H154.981C154.934 40.5909 154.911 40.6142 154.911 40.6609V45.8225C154.911 46.3824 155.033 46.779 155.278 47.0123C155.535 47.234 155.931 47.3448 156.468 47.3448H156.905C157.022 47.3448 157.08 47.4031 157.08 47.5198V48.2371C157.08 48.3538 157.022 48.4121 156.905 48.4121C156.765 48.4238 156.55 48.4296 156.258 48.4296C155.418 48.4296 154.782 48.2721 154.351 47.9572C153.919 47.6422 153.703 47.059 153.703 46.2075V40.6609C153.703 40.6142 153.68 40.5909 153.633 40.5909H152.566C152.449 40.5909 152.391 40.5326 152.391 40.4159V39.7336C152.391 39.6169 152.449 39.5586 152.566 39.5586H153.633C153.68 39.5586 153.703 39.5353 153.703 39.4886V37.4589C153.703 37.3423 153.762 37.284 153.878 37.284H154.736C154.852 37.284 154.911 37.3423 154.911 37.4589V39.4886C154.911 39.5353 154.934 39.5586 154.981 39.5586H156.958C157.075 39.5586 157.133 39.6169 157.133 39.7336V40.4159ZM166.067 42.4981C166.114 42.8247 166.137 43.233 166.137 43.7229V44.2828C166.137 44.3994 166.079 44.4578 165.962 44.4578H160.311C160.264 44.4578 160.241 44.4811 160.241 44.5278C160.264 45.1693 160.299 45.5834 160.346 45.7701C160.474 46.295 160.748 46.7091 161.168 47.0123C161.588 47.3156 162.124 47.4673 162.778 47.4673C163.268 47.4673 163.699 47.3565 164.072 47.1348C164.446 46.9132 164.737 46.5982 164.947 46.19C165.017 46.085 165.099 46.0617 165.192 46.12L165.875 46.5224C165.968 46.5807 165.991 46.6624 165.945 46.7674C165.653 47.3273 165.216 47.7705 164.632 48.0972C164.049 48.4121 163.378 48.5696 162.62 48.5696C161.792 48.5579 161.098 48.3596 160.538 47.9747C159.978 47.5897 159.576 47.0532 159.331 46.365C159.121 45.805 159.016 45.0002 159.016 43.9504C159.016 43.4604 159.022 43.0638 159.033 42.7606C159.057 42.4456 159.103 42.1657 159.173 41.9207C159.372 41.1625 159.768 40.5559 160.363 40.101C160.97 39.6461 161.699 39.4186 162.55 39.4186C163.612 39.4186 164.428 39.6869 165 40.2235C165.571 40.7601 165.927 41.5183 166.067 42.4981ZM162.55 40.5034C161.979 40.5034 161.5 40.6551 161.115 40.9584C160.742 41.25 160.497 41.6466 160.381 42.1482C160.311 42.3931 160.264 42.7897 160.241 43.338C160.241 43.3846 160.264 43.4079 160.311 43.4079H164.842C164.889 43.4079 164.912 43.3846 164.912 43.338C164.889 42.813 164.854 42.4398 164.807 42.2181C164.679 41.6932 164.416 41.2791 164.02 40.9759C163.635 40.6609 163.145 40.5034 162.55 40.5034ZM173.37 47.2398C173.335 47.2981 173.347 47.3273 173.405 47.3273H178.899C179.016 47.3273 179.074 47.3856 179.074 47.5023V48.2371C179.074 48.3538 179.016 48.4121 178.899 48.4121H171.918C171.801 48.4121 171.743 48.3538 171.743 48.2371V47.5023C171.743 47.4206 171.772 47.3506 171.831 47.2923C172.227 46.8257 173.12 45.7292 174.508 44.0028L175.802 42.3931C176.899 41.005 177.447 39.926 177.447 39.1562C177.447 38.5379 177.237 38.0422 176.817 37.6689C176.397 37.2956 175.849 37.109 175.173 37.109C174.508 37.109 173.971 37.3015 173.563 37.6864C173.155 38.0597 172.956 38.5554 172.968 39.1737V39.7161C172.968 39.8327 172.91 39.891 172.793 39.891H171.883C171.766 39.891 171.708 39.8327 171.708 39.7161V39.0162C171.731 38.118 172.064 37.3948 172.705 36.8465C173.359 36.2983 174.181 36.0242 175.173 36.0242C175.872 36.0242 176.491 36.1583 177.027 36.4266C177.564 36.6949 177.978 37.0682 178.269 37.5464C178.561 38.013 178.707 38.5438 178.707 39.1387C178.707 40.1302 178.159 41.3258 177.062 42.7256C176.491 43.4604 175.388 44.8135 173.755 46.7849L173.37 47.2398ZM188.49 43.9154C188.607 43.9154 188.665 43.9737 188.665 44.0903V44.8602C188.665 44.9768 188.607 45.0352 188.49 45.0352H187.738C187.691 45.0352 187.668 45.0585 187.668 45.1052V48.2371C187.668 48.3538 187.609 48.4121 187.493 48.4121H186.6C186.484 48.4121 186.425 48.3538 186.425 48.2371V45.1052C186.425 45.0585 186.402 45.0352 186.355 45.0352H181.124C181.007 45.0352 180.949 44.9768 180.949 44.8602V44.2128C180.949 44.1545 180.966 44.0845 181.001 44.0028L184.588 36.2866C184.623 36.205 184.687 36.1642 184.781 36.1642H185.708C185.766 36.1642 185.807 36.1875 185.831 36.2341C185.866 36.2691 185.871 36.3158 185.848 36.3741L182.366 43.8279C182.354 43.8512 182.354 43.8745 182.366 43.8979C182.378 43.9095 182.395 43.9154 182.419 43.9154H186.355C186.402 43.9154 186.425 43.892 186.425 43.8454V41.0283C186.425 40.9117 186.484 40.8534 186.6 40.8534H187.493C187.609 40.8534 187.668 40.9117 187.668 41.0283V43.8454C187.668 43.892 187.691 43.9154 187.738 43.9154H188.49ZM190.446 48.4121C190.318 48.4121 190.271 48.348 190.306 48.2196L194.173 36.3041C194.208 36.2108 194.278 36.1642 194.383 36.1642H195.258C195.386 36.1642 195.433 36.2283 195.398 36.3566L191.531 48.2721C191.496 48.3655 191.426 48.4121 191.321 48.4121H190.446ZM199.376 48.4121C199.318 48.4121 199.271 48.3946 199.236 48.3596C199.213 48.313 199.213 48.2605 199.236 48.2021L203.278 37.3365C203.29 37.3131 203.29 37.2956 203.278 37.284C203.266 37.2606 203.249 37.249 203.226 37.249H198.501C198.455 37.249 198.431 37.2723 198.431 37.319V38.1238C198.431 38.2405 198.373 38.2988 198.256 38.2988H197.539C197.422 38.2988 197.364 38.2405 197.364 38.1238L197.382 36.3391C197.382 36.2225 197.44 36.1642 197.557 36.1642H204.45C204.567 36.1642 204.625 36.2225 204.625 36.3391V37.144C204.625 37.1906 204.614 37.2606 204.59 37.354L200.566 48.2721C200.531 48.3655 200.461 48.4121 200.356 48.4121H199.376Z" fill="#5F5F5F"/>
</svg>
