<svg width="220" height="201" viewBox="0 0 220 201" fill="none" xmlns="http://www.w3.org/2000/svg">
<path d="M214.781 23.966C211.336 25.6619 207.794 27.0935 204.175 28.256C208.46 22.8768 211.726 16.5476 213.721 9.62178C214.168 8.06945 213.704 6.3702 212.555 5.35465C211.406 4.33862 209.811 4.2169 208.547 5.04846C200.861 10.1086 192.569 13.7453 183.874 15.8715C175.115 6.37163 163.219 0.964844 150.92 0.964844C124.961 0.964844 103.842 24.4072 103.842 53.2212C103.842 55.4905 103.971 57.7475 104.227 59.973C72.0142 56.8336 42.0663 39.2588 21.5014 11.2573C20.7685 10.2594 19.6395 9.72115 18.4834 9.82432C17.3269 9.92464 16.2874 10.6487 15.7031 11.7618C11.532 19.706 9.32701 28.7923 9.32701 38.0373C9.32701 50.6291 13.3769 62.5756 20.5312 71.911C18.3558 71.0747 16.2449 70.0297 14.2301 68.7883C13.1486 68.1198 11.8285 68.1303 10.7538 68.814C9.67867 69.4981 9.00448 70.7557 8.97578 72.1307C8.97064 72.3622 8.97064 72.5938 8.97064 72.8286C8.97064 91.6235 18.0838 108.545 32.0169 117.768C30.8197 117.635 29.6238 117.443 28.4352 117.191C27.2097 116.931 25.95 117.407 25.1238 118.445C24.2962 119.481 24.0221 120.926 24.4038 122.246C29.5608 140.118 42.8386 153.264 58.8902 157.272C45.5769 166.528 30.3524 171.376 14.3702 171.376C11.0352 171.376 7.68137 171.159 4.39909 170.727C2.76844 170.512 1.20933 171.581 0.653785 173.302C0.0982426 175.025 0.687195 176.944 2.07412 177.931C22.6061 192.544 46.3466 200.268 70.7283 200.268C118.66 200.268 148.644 175.179 165.357 154.132C186.198 127.888 198.151 93.1507 198.151 58.8281C198.151 57.3942 198.131 55.9465 198.091 54.503C206.314 47.6266 213.393 39.3044 219.154 29.7394C220.029 28.2869 219.934 26.3665 218.92 25.0296C217.909 23.6903 216.221 23.2576 214.781 23.966Z" fill="#5F5F5F"/>
</svg>
