<svg width="250" height="177" viewBox="0 0 250 177" fill="none" xmlns="http://www.w3.org/2000/svg">
<path d="M244.597 28.2926C241.733 17.5092 233.296 9.01686 222.58 6.13479C203.163 0.896973 125.293 0.896973 125.293 0.896973C125.293 0.896973 47.4236 0.896973 28.0046 6.13479C17.2892 9.01686 8.84986 17.5092 5.98795 28.2926C0.785156 47.8378 0.785156 88.6187 0.785156 88.6187C0.785156 88.6187 0.785156 129.397 5.98795 148.945C8.84986 159.729 17.2892 168.219 28.0035 171.105C47.4225 176.34 125.291 176.34 125.291 176.34C125.291 176.34 203.162 176.34 222.579 171.105C233.295 168.221 241.732 159.729 244.596 148.946C249.8 129.399 249.8 88.6198 249.8 88.6198C249.8 88.6198 249.8 47.8389 244.596 28.2936" fill="#5F5F5F"/>
<path d="M99.8252 125.642L164.908 88.6189L99.8252 51.5913V125.642Z" fill="#151515"/>
</svg>
